<mxfile host="Electron" agent="Mozilla/5.0 (Windows NT 10.0; Win64; x64) AppleWebKit/537.36 (KHTML, like Gecko) draw.io/28.1.2 Chrome/138.0.7204.243 Electron/37.4.0 Safari/537.36" version="28.1.2">
  <diagram name="第 1 页" id="SsMweB3Kdl-bGsyTIpRw">
    <mxGraphModel dx="1678" dy="999" grid="1" gridSize="10" guides="1" tooltips="1" connect="1" arrows="1" fold="1" page="1" pageScale="1" pageWidth="827" pageHeight="1169" math="1" shadow="0">
      <root>
        <mxCell id="0" />
        <mxCell id="1" parent="0" />
        <mxCell id="Uc6875Y9tMyQnbQ6dpTS-19" value="" style="rounded=0;whiteSpace=wrap;html=1;fillColor=none;dashed=1;dashPattern=12 12;" parent="1" vertex="1">
          <mxGeometry x="861.55" y="740" width="68.97" height="168" as="geometry" />
        </mxCell>
        <mxCell id="PzbdmLujQhK1LaHi_ERI-62" value="" style="rounded=0;whiteSpace=wrap;html=1;fillColor=none;dashed=1;dashPattern=12 12;fontSize=14;" parent="1" vertex="1">
          <mxGeometry x="337.77" y="1026" width="30" height="150" as="geometry" />
        </mxCell>
        <mxCell id="PzbdmLujQhK1LaHi_ERI-63" value="" style="rounded=0;whiteSpace=wrap;html=1;fillColor=none;dashed=1;dashPattern=12 12;fontSize=14;" parent="1" vertex="1">
          <mxGeometry x="376.27" y="1026" width="30" height="150.04" as="geometry" />
        </mxCell>
        <mxCell id="PzbdmLujQhK1LaHi_ERI-24" value="" style="rounded=0;whiteSpace=wrap;html=1;fillColor=none;dashed=1;dashPattern=12 12;fontSize=14;" parent="1" vertex="1">
          <mxGeometry x="334.03" y="740" width="212.97" height="210" as="geometry" />
        </mxCell>
        <mxCell id="mwKXy6uLABYgqvZdaFpg-76" value="" style="rounded=0;whiteSpace=wrap;html=1;fillColor=none;dashed=1;dashPattern=12 12;" parent="1" vertex="1">
          <mxGeometry x="120" y="397.56" width="440" height="120" as="geometry" />
        </mxCell>
        <mxCell id="mwKXy6uLABYgqvZdaFpg-63" value="" style="endArrow=none;dashed=1;html=1;dashPattern=1 3;strokeWidth=2;rounded=0;" parent="1" edge="1">
          <mxGeometry width="50" height="50" relative="1" as="geometry">
            <mxPoint x="264.72" y="465.05" as="sourcePoint" />
            <mxPoint x="284.72" y="465.05" as="targetPoint" />
          </mxGeometry>
        </mxCell>
        <mxCell id="mwKXy6uLABYgqvZdaFpg-48" value="" style="rounded=0;whiteSpace=wrap;html=1;fillColor=none;dashed=1;dashPattern=12 12;" parent="1" vertex="1">
          <mxGeometry x="120" y="270" width="440" height="120" as="geometry" />
        </mxCell>
        <mxCell id="mwKXy6uLABYgqvZdaFpg-31" value="" style="whiteSpace=wrap;html=1;aspect=fixed;fillColor=none;dashed=1;dashPattern=8 8;" parent="1" vertex="1">
          <mxGeometry x="460" y="125" width="100" height="100" as="geometry" />
        </mxCell>
        <mxCell id="mwKXy6uLABYgqvZdaFpg-8" value="" style="sketch=0;points=[[0,0,0],[0.25,0,0],[0.5,0,0],[0.75,0,0],[1,0,0],[0,1,0],[0.25,1,0],[0.5,1,0],[0.75,1,0],[1,1,0],[0,0.25,0],[0,0.5,0],[0,0.75,0],[1,0.25,0],[1,0.5,0],[1,0.75,0]];outlineConnect=0;fontColor=#232F3E;fillColor=#4D4D4D;strokeColor=#ffffff;dashed=0;verticalLabelPosition=bottom;verticalAlign=top;align=center;html=1;fontSize=12;fontStyle=0;aspect=fixed;shape=mxgraph.aws4.resourceIcon;resIcon=mxgraph.aws4.robotics;" parent="1" vertex="1">
          <mxGeometry x="280" y="355" width="29.44" height="29.44" as="geometry" />
        </mxCell>
        <mxCell id="mwKXy6uLABYgqvZdaFpg-9" value="" style="shape=mxgraph.networks2.icon;aspect=fixed;fillColor=#FFFFFF;strokeColor=#000000;gradientColor=#5B6163;network2IconShadow=1;network2bgFillColor=none;labelPosition=center;verticalLabelPosition=bottom;align=center;verticalAlign=top;network2Icon=mxgraph.networks2.user_male;network2IconW=0.8918;network2IconH=1.0003;" parent="1" vertex="1">
          <mxGeometry x="310.46" y="120.28" width="44.08" height="49.44" as="geometry" />
        </mxCell>
        <mxCell id="mwKXy6uLABYgqvZdaFpg-10" value="" style="shape=mxgraph.networks2.icon;aspect=fixed;fillColor=#EDEDED;strokeColor=#000000;gradientColor=#5B6163;network2IconShadow=1;network2bgFillColor=none;labelPosition=center;verticalLabelPosition=bottom;align=center;verticalAlign=top;network2Icon=mxgraph.networks2.users;network2IconXOffset=0.0019;network2IconYOffset=-0.0004;network2IconW=1.0353;network2IconH=0.6623;" parent="1" vertex="1">
          <mxGeometry x="305.23" y="264.55" width="54.54" height="34.89" as="geometry" />
        </mxCell>
        <mxCell id="mwKXy6uLABYgqvZdaFpg-11" value="" style="sketch=0;points=[[0,0,0],[0.25,0,0],[0.5,0,0],[0.75,0,0],[1,0,0],[0,1,0],[0.25,1,0],[0.5,1,0],[0.75,1,0],[1,1,0],[0,0.25,0],[0,0.5,0],[0,0.75,0],[1,0.25,0],[1,0.5,0],[1,0.75,0]];outlineConnect=0;fontColor=#232F3E;fillColor=#990000;strokeColor=#ffffff;dashed=0;verticalLabelPosition=bottom;verticalAlign=top;align=center;html=1;fontSize=12;fontStyle=0;aspect=fixed;shape=mxgraph.aws4.resourceIcon;resIcon=mxgraph.aws4.robomaker;" parent="1" vertex="1">
          <mxGeometry x="125" y="160" width="30" height="30" as="geometry" />
        </mxCell>
        <mxCell id="mwKXy6uLABYgqvZdaFpg-13" value="" style="sketch=0;points=[[0,0,0],[0.25,0,0],[0.5,0,0],[0.75,0,0],[1,0,0],[0,1,0],[0.25,1,0],[0.5,1,0],[0.75,1,0],[1,1,0],[0,0.25,0],[0,0.5,0],[0,0.75,0],[1,0.25,0],[1,0.5,0],[1,0.75,0]];outlineConnect=0;fontColor=#232F3E;fillColor=#990000;strokeColor=#ffffff;dashed=0;verticalLabelPosition=bottom;verticalAlign=top;align=center;html=1;fontSize=12;fontStyle=0;aspect=fixed;shape=mxgraph.aws4.resourceIcon;resIcon=mxgraph.aws4.robomaker;" parent="1" vertex="1">
          <mxGeometry x="125" y="200" width="30" height="30" as="geometry" />
        </mxCell>
        <mxCell id="mwKXy6uLABYgqvZdaFpg-14" value="" style="sketch=0;points=[[0,0,0],[0.25,0,0],[0.5,0,0],[0.75,0,0],[1,0,0],[0,1,0],[0.25,1,0],[0.5,1,0],[0.75,1,0],[1,1,0],[0,0.25,0],[0,0.5,0],[0,0.75,0],[1,0.25,0],[1,0.5,0],[1,0.75,0]];outlineConnect=0;fontColor=#232F3E;fillColor=#990000;strokeColor=#ffffff;dashed=0;verticalLabelPosition=bottom;verticalAlign=top;align=center;html=1;fontSize=12;fontStyle=0;aspect=fixed;shape=mxgraph.aws4.resourceIcon;resIcon=mxgraph.aws4.robomaker;" parent="1" vertex="1">
          <mxGeometry x="125" y="120" width="30" height="30" as="geometry" />
        </mxCell>
        <mxCell id="mwKXy6uLABYgqvZdaFpg-15" value="" style="sketch=0;points=[[0,0,0],[0.25,0,0],[0.5,0,0],[0.75,0,0],[1,0,0],[0,1,0],[0.25,1,0],[0.5,1,0],[0.75,1,0],[1,1,0],[0,0.25,0],[0,0.5,0],[0,0.75,0],[1,0.25,0],[1,0.5,0],[1,0.75,0]];outlineConnect=0;fontColor=#232F3E;fillColor=#990000;strokeColor=#ffffff;dashed=0;verticalLabelPosition=bottom;verticalAlign=top;align=center;html=1;fontSize=12;fontStyle=0;aspect=fixed;shape=mxgraph.aws4.resourceIcon;resIcon=mxgraph.aws4.robomaker;" parent="1" vertex="1">
          <mxGeometry x="165" y="160" width="30" height="30" as="geometry" />
        </mxCell>
        <mxCell id="mwKXy6uLABYgqvZdaFpg-16" value="" style="sketch=0;points=[[0,0,0],[0.25,0,0],[0.5,0,0],[0.75,0,0],[1,0,0],[0,1,0],[0.25,1,0],[0.5,1,0],[0.75,1,0],[1,1,0],[0,0.25,0],[0,0.5,0],[0,0.75,0],[1,0.25,0],[1,0.5,0],[1,0.75,0]];outlineConnect=0;fontColor=#232F3E;fillColor=#990000;strokeColor=#ffffff;dashed=0;verticalLabelPosition=bottom;verticalAlign=top;align=center;html=1;fontSize=12;fontStyle=0;aspect=fixed;shape=mxgraph.aws4.resourceIcon;resIcon=mxgraph.aws4.robomaker;" parent="1" vertex="1">
          <mxGeometry x="165" y="200" width="30" height="30" as="geometry" />
        </mxCell>
        <mxCell id="mwKXy6uLABYgqvZdaFpg-17" value="" style="sketch=0;points=[[0,0,0],[0.25,0,0],[0.5,0,0],[0.75,0,0],[1,0,0],[0,1,0],[0.25,1,0],[0.5,1,0],[0.75,1,0],[1,1,0],[0,0.25,0],[0,0.5,0],[0,0.75,0],[1,0.25,0],[1,0.5,0],[1,0.75,0]];outlineConnect=0;fontColor=#232F3E;fillColor=#990000;strokeColor=#ffffff;dashed=0;verticalLabelPosition=bottom;verticalAlign=top;align=center;html=1;fontSize=12;fontStyle=0;aspect=fixed;shape=mxgraph.aws4.resourceIcon;resIcon=mxgraph.aws4.robomaker;" parent="1" vertex="1">
          <mxGeometry x="165" y="120" width="30" height="30" as="geometry" />
        </mxCell>
        <mxCell id="mwKXy6uLABYgqvZdaFpg-18" value="&lt;font face=&quot;Times New Roman&quot;&gt;Operation 1&lt;/font&gt;" style="rounded=0;whiteSpace=wrap;html=1;" parent="1" vertex="1">
          <mxGeometry x="200" y="325" width="70" height="30" as="geometry" />
        </mxCell>
        <mxCell id="mwKXy6uLABYgqvZdaFpg-21" value="" style="sketch=0;points=[[0,0,0],[0.25,0,0],[0.5,0,0],[0.75,0,0],[1,0,0],[0,1,0],[0.25,1,0],[0.5,1,0],[0.75,1,0],[1,1,0],[0,0.25,0],[0,0.5,0],[0,0.75,0],[1,0.25,0],[1,0.5,0],[1,0.75,0]];outlineConnect=0;fontColor=#232F3E;fillColor=#990000;strokeColor=#ffffff;dashed=0;verticalLabelPosition=bottom;verticalAlign=top;align=center;html=1;fontSize=12;fontStyle=0;aspect=fixed;shape=mxgraph.aws4.resourceIcon;resIcon=mxgraph.aws4.robomaker;" parent="1" vertex="1">
          <mxGeometry x="125" y="279.44" width="30" height="30" as="geometry" />
        </mxCell>
        <mxCell id="mwKXy6uLABYgqvZdaFpg-22" value="" style="sketch=0;points=[[0,0,0],[0.25,0,0],[0.5,0,0],[0.75,0,0],[1,0,0],[0,1,0],[0.25,1,0],[0.5,1,0],[0.75,1,0],[1,1,0],[0,0.25,0],[0,0.5,0],[0,0.75,0],[1,0.25,0],[1,0.5,0],[1,0.75,0]];outlineConnect=0;fontColor=#232F3E;fillColor=#4D4D4D;strokeColor=#ffffff;dashed=0;verticalLabelPosition=bottom;verticalAlign=top;align=center;html=1;fontSize=12;fontStyle=0;aspect=fixed;shape=mxgraph.aws4.resourceIcon;resIcon=mxgraph.aws4.robotics;" parent="1" vertex="1">
          <mxGeometry x="399" y="355" width="29.44" height="29.44" as="geometry" />
        </mxCell>
        <mxCell id="mwKXy6uLABYgqvZdaFpg-25" value="" style="endArrow=none;dashed=1;html=1;dashPattern=1 3;strokeWidth=2;rounded=0;" parent="1" edge="1">
          <mxGeometry width="50" height="50" relative="1" as="geometry">
            <mxPoint x="140" y="270" as="sourcePoint" />
            <mxPoint x="139.72" y="230" as="targetPoint" />
          </mxGeometry>
        </mxCell>
        <mxCell id="mwKXy6uLABYgqvZdaFpg-26" value="" style="endArrow=classic;html=1;rounded=0;" parent="1" edge="1">
          <mxGeometry width="50" height="50" relative="1" as="geometry">
            <mxPoint x="140" y="339.16" as="sourcePoint" />
            <mxPoint x="200" y="339.16" as="targetPoint" />
            <Array as="points">
              <mxPoint x="140" y="309.44" />
              <mxPoint x="140" y="339.44" />
            </Array>
          </mxGeometry>
        </mxCell>
        <mxCell id="mwKXy6uLABYgqvZdaFpg-27" value="&lt;font face=&quot;Times New Roman&quot;&gt;Dominant Order&lt;/font&gt;" style="text;html=1;align=center;verticalAlign=middle;whiteSpace=wrap;rounded=0;" parent="1" vertex="1">
          <mxGeometry x="457.5" y="135" width="65" height="30" as="geometry" />
        </mxCell>
        <mxCell id="mwKXy6uLABYgqvZdaFpg-28" value="" style="sketch=0;points=[[0,0,0],[0.25,0,0],[0.5,0,0],[0.75,0,0],[1,0,0],[0,1,0],[0.25,1,0],[0.5,1,0],[0.75,1,0],[1,1,0],[0,0.25,0],[0,0.5,0],[0,0.75,0],[1,0.25,0],[1,0.5,0],[1,0.75,0]];outlineConnect=0;fontColor=#232F3E;fillColor=#990000;strokeColor=#ffffff;dashed=0;verticalLabelPosition=bottom;verticalAlign=top;align=center;html=1;fontSize=12;fontStyle=0;aspect=fixed;shape=mxgraph.aws4.resourceIcon;resIcon=mxgraph.aws4.robomaker;" parent="1" vertex="1">
          <mxGeometry x="521.76" y="135" width="30" height="30" as="geometry" />
        </mxCell>
        <mxCell id="mwKXy6uLABYgqvZdaFpg-29" value="" style="sketch=0;points=[[0,0,0],[0.25,0,0],[0.5,0,0],[0.75,0,0],[1,0,0],[0,1,0],[0.25,1,0],[0.5,1,0],[0.75,1,0],[1,1,0],[0,0.25,0],[0,0.5,0],[0,0.75,0],[1,0.25,0],[1,0.5,0],[1,0.75,0]];outlineConnect=0;fontColor=#232F3E;fillColor=#4D4D4D;strokeColor=#ffffff;dashed=0;verticalLabelPosition=bottom;verticalAlign=top;align=center;html=1;fontSize=12;fontStyle=0;aspect=fixed;shape=mxgraph.aws4.resourceIcon;resIcon=mxgraph.aws4.robotics;" parent="1" vertex="1">
          <mxGeometry x="521.76" y="185" width="29.44" height="29.44" as="geometry" />
        </mxCell>
        <mxCell id="mwKXy6uLABYgqvZdaFpg-30" value="&lt;font face=&quot;Times New Roman&quot;&gt;Normal Order&lt;/font&gt;" style="text;html=1;align=center;verticalAlign=middle;whiteSpace=wrap;rounded=0;" parent="1" vertex="1">
          <mxGeometry x="457.5" y="184.44" width="65" height="30" as="geometry" />
        </mxCell>
        <mxCell id="mwKXy6uLABYgqvZdaFpg-32" value="&lt;font face=&quot;Times New Roman&quot;&gt;Operation 2&lt;/font&gt;" style="rounded=0;whiteSpace=wrap;html=1;" parent="1" vertex="1">
          <mxGeometry x="319.44" y="325" width="70" height="30" as="geometry" />
        </mxCell>
        <mxCell id="mwKXy6uLABYgqvZdaFpg-33" value="&lt;font face=&quot;Times New Roman&quot;&gt;Operation 3&lt;/font&gt;" style="rounded=0;whiteSpace=wrap;html=1;" parent="1" vertex="1">
          <mxGeometry x="439.76" y="325" width="70" height="30" as="geometry" />
        </mxCell>
        <mxCell id="mwKXy6uLABYgqvZdaFpg-34" value="&lt;font face=&quot;Times New Roman&quot;&gt;Leader&lt;/font&gt;" style="text;html=1;align=center;verticalAlign=middle;whiteSpace=wrap;rounded=0;" parent="1" vertex="1">
          <mxGeometry x="298.77000000000004" y="168.72" width="65" height="20.56" as="geometry" />
        </mxCell>
        <mxCell id="mwKXy6uLABYgqvZdaFpg-37" value="&lt;font face=&quot;Times New Roman&quot;&gt;Worker&lt;/font&gt;" style="text;html=1;align=center;verticalAlign=middle;whiteSpace=wrap;rounded=0;" parent="1" vertex="1">
          <mxGeometry x="300" y="299.44" width="65" height="20.56" as="geometry" />
        </mxCell>
        <mxCell id="mwKXy6uLABYgqvZdaFpg-38" value="" style="endArrow=classic;html=1;rounded=0;entryX=0;entryY=0.5;entryDx=0;entryDy=0;" parent="1" target="mwKXy6uLABYgqvZdaFpg-32" edge="1">
          <mxGeometry width="50" height="50" relative="1" as="geometry">
            <mxPoint x="269.44" y="339.72" as="sourcePoint" />
            <mxPoint x="309.44" y="339.72" as="targetPoint" />
          </mxGeometry>
        </mxCell>
        <mxCell id="mwKXy6uLABYgqvZdaFpg-39" value="" style="endArrow=classic;html=1;rounded=0;entryX=0;entryY=0.5;entryDx=0;entryDy=0;" parent="1" edge="1">
          <mxGeometry width="50" height="50" relative="1" as="geometry">
            <mxPoint x="389.88" y="339.72" as="sourcePoint" />
            <mxPoint x="439.44" y="340" as="targetPoint" />
          </mxGeometry>
        </mxCell>
        <mxCell id="mwKXy6uLABYgqvZdaFpg-40" value="&lt;font face=&quot;Times New Roman&quot;&gt;Stop processing&lt;/font&gt;" style="text;html=1;align=center;verticalAlign=middle;whiteSpace=wrap;rounded=0;" parent="1" vertex="1">
          <mxGeometry x="309.44000000000005" y="359.44" width="87.78" height="20.56" as="geometry" />
        </mxCell>
        <mxCell id="mwKXy6uLABYgqvZdaFpg-42" value="" style="sketch=0;outlineConnect=0;fontColor=#232F3E;gradientColor=none;fillColor=#232F3D;strokeColor=none;dashed=0;verticalLabelPosition=bottom;verticalAlign=top;align=center;html=1;fontSize=12;fontStyle=0;aspect=fixed;pointerEvents=1;shape=mxgraph.aws4.documents3;" parent="1" vertex="1">
          <mxGeometry x="249.08" y="197" width="21.92" height="30" as="geometry" />
        </mxCell>
        <mxCell id="mwKXy6uLABYgqvZdaFpg-43" value="" style="html=1;shadow=0;dashed=0;align=center;verticalAlign=middle;shape=mxgraph.arrows2.jumpInArrow;dy=3.49;dx=8.33;arrowHead=15.86;direction=south;flipH=1;" parent="1" vertex="1">
          <mxGeometry x="250.54" y="157" width="49.23" height="38" as="geometry" />
        </mxCell>
        <mxCell id="mwKXy6uLABYgqvZdaFpg-44" value="" style="html=1;shadow=0;dashed=0;align=center;verticalAlign=middle;shape=mxgraph.arrows2.jumpInArrow;dy=3.49;dx=8.33;arrowHead=15.86;direction=south;flipH=1;rotation=-90;" parent="1" vertex="1">
          <mxGeometry x="251.83" y="238.44" width="49.23" height="38" as="geometry" />
        </mxCell>
        <mxCell id="mwKXy6uLABYgqvZdaFpg-45" value="&lt;font face=&quot;Times New Roman&quot;&gt;Dominant order is coming&lt;/font&gt;" style="text;html=1;align=center;verticalAlign=middle;whiteSpace=wrap;rounded=0;" parent="1" vertex="1">
          <mxGeometry x="160.30000000000004" y="284.15999999999997" width="87.78" height="20.56" as="geometry" />
        </mxCell>
        <mxCell id="mwKXy6uLABYgqvZdaFpg-46" value="&lt;font face=&quot;Times New Roman&quot;&gt;This is a waste of time&lt;/font&gt;" style="shape=callout;whiteSpace=wrap;html=1;perimeter=calloutPerimeter;size=9;position=0.21;base=10;position2=0.18;" parent="1" vertex="1">
          <mxGeometry x="319.44" y="230" width="121.39" height="29.44" as="geometry" />
        </mxCell>
        <mxCell id="mwKXy6uLABYgqvZdaFpg-47" value="&lt;font face=&quot;Times New Roman&quot;&gt;Follow my instruction&lt;/font&gt;" style="shape=callout;whiteSpace=wrap;html=1;perimeter=calloutPerimeter;size=10;position=0.09;base=10;position2=0.09;" parent="1" vertex="1">
          <mxGeometry x="338.61" y="100.56" width="121.39" height="29.44" as="geometry" />
        </mxCell>
        <mxCell id="mwKXy6uLABYgqvZdaFpg-49" value="&lt;font style=&quot;color: rgb(255, 255, 255);&quot; face=&quot;Times New Roman&quot;&gt;Ideal Production Process&lt;/font&gt;" style="text;html=1;align=center;verticalAlign=middle;whiteSpace=wrap;rounded=0;fillColor=#990000;" parent="1" vertex="1">
          <mxGeometry x="450" y="279.44" width="100" height="35.84" as="geometry" />
        </mxCell>
        <mxCell id="mwKXy6uLABYgqvZdaFpg-52" value="&lt;font face=&quot;Times New Roman&quot;&gt;Operation 1&lt;/font&gt;" style="rounded=0;whiteSpace=wrap;html=1;" parent="1" vertex="1">
          <mxGeometry x="150" y="451" width="62.89" height="28.56" as="geometry" />
        </mxCell>
        <mxCell id="mwKXy6uLABYgqvZdaFpg-53" value="&lt;font face=&quot;Times New Roman&quot;&gt;Operation 2&lt;/font&gt;" style="rounded=0;whiteSpace=wrap;html=1;" parent="1" vertex="1">
          <mxGeometry x="335.11" y="449.56" width="70" height="30" as="geometry" />
        </mxCell>
        <mxCell id="mwKXy6uLABYgqvZdaFpg-54" value="&lt;font face=&quot;Times New Roman&quot;&gt;Operation 3&lt;/font&gt;" style="rounded=0;whiteSpace=wrap;html=1;" parent="1" vertex="1">
          <mxGeometry x="477.78" y="449.56" width="70" height="30" as="geometry" />
        </mxCell>
        <mxCell id="mwKXy6uLABYgqvZdaFpg-55" value="" style="sketch=0;points=[[0,0,0],[0.25,0,0],[0.5,0,0],[0.75,0,0],[1,0,0],[0,1,0],[0.25,1,0],[0.5,1,0],[0.75,1,0],[1,1,0],[0,0.25,0],[0,0.5,0],[0,0.75,0],[1,0.25,0],[1,0.5,0],[1,0.75,0]];outlineConnect=0;fontColor=#232F3E;fillColor=#990000;strokeColor=#ffffff;dashed=0;verticalLabelPosition=bottom;verticalAlign=top;align=center;html=1;fontSize=12;fontStyle=0;aspect=fixed;shape=mxgraph.aws4.resourceIcon;resIcon=mxgraph.aws4.robomaker;" parent="1" vertex="1">
          <mxGeometry x="233.72000000000003" y="449.56" width="30" height="30" as="geometry" />
        </mxCell>
        <mxCell id="mwKXy6uLABYgqvZdaFpg-56" value="" style="sketch=0;points=[[0,0,0],[0.25,0,0],[0.5,0,0],[0.75,0,0],[1,0,0],[0,1,0],[0.25,1,0],[0.5,1,0],[0.75,1,0],[1,1,0],[0,0.25,0],[0,0.5,0],[0,0.75,0],[1,0.25,0],[1,0.5,0],[1,0.75,0]];outlineConnect=0;fontColor=#232F3E;fillColor=#4D4D4D;strokeColor=#ffffff;dashed=0;verticalLabelPosition=bottom;verticalAlign=top;align=center;html=1;fontSize=12;fontStyle=0;aspect=fixed;shape=mxgraph.aws4.resourceIcon;resIcon=mxgraph.aws4.robotics;" parent="1" vertex="1">
          <mxGeometry x="283.51" y="449.56" width="29.44" height="29.44" as="geometry" />
        </mxCell>
        <mxCell id="mwKXy6uLABYgqvZdaFpg-57" value="" style="sketch=0;points=[[0,0,0],[0.25,0,0],[0.5,0,0],[0.75,0,0],[1,0,0],[0,1,0],[0.25,1,0],[0.5,1,0],[0.75,1,0],[1,1,0],[0,0.25,0],[0,0.5,0],[0,0.75,0],[1,0.25,0],[1,0.5,0],[1,0.75,0]];outlineConnect=0;fontColor=#232F3E;fillColor=#4D4D4D;strokeColor=#ffffff;dashed=0;verticalLabelPosition=bottom;verticalAlign=top;align=center;html=1;fontSize=12;fontStyle=0;aspect=fixed;shape=mxgraph.aws4.resourceIcon;resIcon=mxgraph.aws4.robotics;" parent="1" vertex="1">
          <mxGeometry x="426.89" y="450.12" width="29.44" height="29.44" as="geometry" />
        </mxCell>
        <mxCell id="mwKXy6uLABYgqvZdaFpg-61" value="&lt;font face=&quot;Times New Roman&quot;&gt;Worker&lt;/font&gt;" style="text;html=1;align=center;verticalAlign=middle;whiteSpace=wrap;rounded=0;" parent="1" vertex="1">
          <mxGeometry x="302.43" y="428.89" width="65" height="20.56" as="geometry" />
        </mxCell>
        <mxCell id="mwKXy6uLABYgqvZdaFpg-62" value="" style="shape=mxgraph.networks2.icon;aspect=fixed;fillColor=#EDEDED;strokeColor=#000000;gradientColor=#5B6163;network2IconShadow=1;network2bgFillColor=none;labelPosition=center;verticalLabelPosition=bottom;align=center;verticalAlign=top;network2Icon=mxgraph.networks2.users;network2IconXOffset=0.0019;network2IconYOffset=-0.0004;network2IconW=1.0353;network2IconH=0.6623;" parent="1" vertex="1">
          <mxGeometry x="307.66" y="394" width="54.54" height="34.89" as="geometry" />
        </mxCell>
        <mxCell id="mwKXy6uLABYgqvZdaFpg-64" value="" style="endArrow=classic;html=1;rounded=0;exitX=1;exitY=0.5;exitDx=0;exitDy=0;" parent="1" source="mwKXy6uLABYgqvZdaFpg-52" edge="1">
          <mxGeometry width="50" height="50" relative="1" as="geometry">
            <mxPoint x="213.89" y="464.56" as="sourcePoint" />
            <mxPoint x="233.89" y="464.56" as="targetPoint" />
          </mxGeometry>
        </mxCell>
        <mxCell id="mwKXy6uLABYgqvZdaFpg-65" value="" style="endArrow=classic;html=1;rounded=0;exitX=1;exitY=0.5;exitDx=0;exitDy=0;" parent="1" edge="1">
          <mxGeometry width="50" height="50" relative="1" as="geometry">
            <mxPoint x="312.95" y="464.33" as="sourcePoint" />
            <mxPoint x="333.95" y="464.33" as="targetPoint" />
          </mxGeometry>
        </mxCell>
        <mxCell id="mwKXy6uLABYgqvZdaFpg-66" value="" style="endArrow=classic;html=1;rounded=0;exitX=1;exitY=0.5;exitDx=0;exitDy=0;" parent="1" edge="1">
          <mxGeometry width="50" height="50" relative="1" as="geometry">
            <mxPoint x="405.89" y="464.33" as="sourcePoint" />
            <mxPoint x="426.89" y="464.33" as="targetPoint" />
          </mxGeometry>
        </mxCell>
        <mxCell id="mwKXy6uLABYgqvZdaFpg-67" value="" style="endArrow=classic;html=1;rounded=0;exitX=1;exitY=0.5;exitDx=0;exitDy=0;" parent="1" edge="1">
          <mxGeometry width="50" height="50" relative="1" as="geometry">
            <mxPoint x="456.33" y="464.60999999999996" as="sourcePoint" />
            <mxPoint x="477.33" y="464.60999999999996" as="targetPoint" />
          </mxGeometry>
        </mxCell>
        <mxCell id="mwKXy6uLABYgqvZdaFpg-68" value="&lt;font style=&quot;color: rgb(255, 255, 255);&quot; face=&quot;Times New Roman&quot;&gt;Actual Production Process&lt;/font&gt;" style="text;html=1;align=center;verticalAlign=middle;whiteSpace=wrap;rounded=0;fillColor=#990000;" parent="1" vertex="1">
          <mxGeometry x="455.18" y="404" width="96.58" height="35.84" as="geometry" />
        </mxCell>
        <mxCell id="mwKXy6uLABYgqvZdaFpg-69" value="&lt;font face=&quot;Times New Roman&quot;&gt;Delay&lt;/font&gt;" style="text;html=1;align=center;verticalAlign=middle;whiteSpace=wrap;rounded=0;" parent="1" vertex="1">
          <mxGeometry x="300.77000000000004" y="494" width="42.34" height="20.56" as="geometry" />
        </mxCell>
        <mxCell id="mwKXy6uLABYgqvZdaFpg-70" value="" style="endArrow=classic;html=1;rounded=0;dashed=1;entryX=0;entryY=0.5;entryDx=0;entryDy=0;" parent="1" target="mwKXy6uLABYgqvZdaFpg-69" edge="1">
          <mxGeometry width="50" height="50" relative="1" as="geometry">
            <mxPoint x="248" y="484" as="sourcePoint" />
            <mxPoint x="255.61" y="504" as="targetPoint" />
            <Array as="points">
              <mxPoint x="248" y="504" />
            </Array>
          </mxGeometry>
        </mxCell>
        <mxCell id="mwKXy6uLABYgqvZdaFpg-74" value="&lt;font face=&quot;Times New Roman&quot;&gt;&amp;nbsp;Processing&lt;/font&gt;" style="text;html=1;align=center;verticalAlign=middle;whiteSpace=wrap;rounded=0;" parent="1" vertex="1">
          <mxGeometry x="405.5" y="479.56" width="72.28" height="20.56" as="geometry" />
        </mxCell>
        <mxCell id="mwKXy6uLABYgqvZdaFpg-75" value="&lt;font face=&quot;Times New Roman&quot;&gt;Just get it done early&lt;/font&gt;" style="shape=callout;whiteSpace=wrap;html=1;perimeter=calloutPerimeter;size=9;position=0.84;base=9;position2=1;" parent="1" vertex="1">
          <mxGeometry x="178.60999999999999" y="394" width="121.39" height="29.44" as="geometry" />
        </mxCell>
        <mxCell id="lvFmcW1UVsuf_7vDbUlS-1" value="" style="endArrow=classic;html=1;rounded=0;" parent="1" edge="1">
          <mxGeometry width="50" height="50" relative="1" as="geometry">
            <mxPoint x="202.43" y="145.04" as="sourcePoint" />
            <mxPoint x="302.43" y="144.76" as="targetPoint" />
          </mxGeometry>
        </mxCell>
        <mxCell id="lvFmcW1UVsuf_7vDbUlS-2" value="&lt;font face=&quot;Times New Roman&quot;&gt;Select&lt;/font&gt;" style="text;html=1;align=center;verticalAlign=middle;whiteSpace=wrap;rounded=0;" parent="1" vertex="1">
          <mxGeometry x="214.74" y="124.72" width="68.77" height="20.56" as="geometry" />
        </mxCell>
        <mxCell id="lvFmcW1UVsuf_7vDbUlS-3" value="&lt;font face=&quot;Times New Roman&quot;&gt;Scheduling Plan&lt;/font&gt;" style="text;html=1;align=center;verticalAlign=middle;whiteSpace=wrap;rounded=0;" parent="1" vertex="1">
          <mxGeometry x="274.11" y="201.72" width="85.66" height="20.56" as="geometry" />
        </mxCell>
        <mxCell id="PzbdmLujQhK1LaHi_ERI-1" value="$$D_1$$" style="rounded=0;whiteSpace=wrap;html=1;fillColor=#FF8000;fontSize=14;" parent="1" vertex="1">
          <mxGeometry x="341.33000000000004" y="755" width="39.7" height="20" as="geometry" />
        </mxCell>
        <mxCell id="PzbdmLujQhK1LaHi_ERI-2" value="$$D_2$$" style="rounded=0;whiteSpace=wrap;html=1;fillColor=#FF8000;fontSize=14;" parent="1" vertex="1">
          <mxGeometry x="390.40999999999997" y="755" width="39.7" height="20" as="geometry" />
        </mxCell>
        <mxCell id="PzbdmLujQhK1LaHi_ERI-4" value="$$D_n$$" style="rounded=0;whiteSpace=wrap;html=1;fillColor=#FF8000;fontSize=14;" parent="1" vertex="1">
          <mxGeometry x="490.47" y="755" width="39.7" height="20" as="geometry" />
        </mxCell>
        <mxCell id="PzbdmLujQhK1LaHi_ERI-5" value="$$N_1$$" style="rounded=0;whiteSpace=wrap;html=1;fontSize=14;" parent="1" vertex="1">
          <mxGeometry x="341.33000000000004" y="785" width="39.7" height="20" as="geometry" />
        </mxCell>
        <mxCell id="PzbdmLujQhK1LaHi_ERI-6" value="$$N_2$$" style="rounded=0;whiteSpace=wrap;html=1;fontSize=14;" parent="1" vertex="1">
          <mxGeometry x="390.40999999999997" y="785" width="39.7" height="20" as="geometry" />
        </mxCell>
        <mxCell id="PzbdmLujQhK1LaHi_ERI-8" value="$$N_n$$" style="rounded=0;whiteSpace=wrap;html=1;fontSize=14;" parent="1" vertex="1">
          <mxGeometry x="490.47" y="785" width="39.7" height="20" as="geometry" />
        </mxCell>
        <mxCell id="PzbdmLujQhK1LaHi_ERI-13" value="&lt;font face=&quot;Times New Roman&quot;&gt;Select&lt;/font&gt;" style="text;html=1;align=center;verticalAlign=middle;whiteSpace=wrap;rounded=0;fontSize=14;" parent="1" vertex="1">
          <mxGeometry x="380.26000000000005" y="823.95" width="60" height="30" as="geometry" />
        </mxCell>
        <mxCell id="PzbdmLujQhK1LaHi_ERI-15" value="$$D_1$$" style="rounded=0;whiteSpace=wrap;html=1;fillColor=#FF8000;fontSize=14;" parent="1" vertex="1">
          <mxGeometry x="347.03" y="888" width="39.7" height="20" as="geometry" />
        </mxCell>
        <mxCell id="PzbdmLujQhK1LaHi_ERI-16" value="$$D_4$$" style="rounded=0;whiteSpace=wrap;html=1;fillColor=#FF8000;fontSize=14;" parent="1" vertex="1">
          <mxGeometry x="396.11" y="888" width="39.7" height="20" as="geometry" />
        </mxCell>
        <mxCell id="PzbdmLujQhK1LaHi_ERI-17" value="$$D_k$$" style="rounded=0;whiteSpace=wrap;html=1;fillColor=#FF8000;fontSize=14;" parent="1" vertex="1">
          <mxGeometry x="496.16999999999996" y="888" width="39.7" height="20" as="geometry" />
        </mxCell>
        <mxCell id="PzbdmLujQhK1LaHi_ERI-19" value="$$N_1$$" style="rounded=0;whiteSpace=wrap;html=1;fontSize=14;" parent="1" vertex="1">
          <mxGeometry x="347.03" y="918" width="39.7" height="20" as="geometry" />
        </mxCell>
        <mxCell id="PzbdmLujQhK1LaHi_ERI-20" value="$$N_2$$" style="rounded=0;whiteSpace=wrap;html=1;fontSize=14;" parent="1" vertex="1">
          <mxGeometry x="396.11" y="918" width="39.7" height="20" as="geometry" />
        </mxCell>
        <mxCell id="PzbdmLujQhK1LaHi_ERI-22" value="$$N_n$$" style="rounded=0;whiteSpace=wrap;html=1;fontSize=14;" parent="1" vertex="1">
          <mxGeometry x="496.16999999999996" y="918" width="39.7" height="20" as="geometry" />
        </mxCell>
        <mxCell id="PzbdmLujQhK1LaHi_ERI-25" value="&lt;font face=&quot;Times New Roman&quot;&gt;&lt;b&gt;Choose orders&lt;/b&gt;&lt;/font&gt;" style="text;html=1;align=center;verticalAlign=middle;whiteSpace=wrap;rounded=0;fontSize=14;" parent="1" vertex="1">
          <mxGeometry x="390.40999999999997" y="710" width="97.11" height="20" as="geometry" />
        </mxCell>
        <mxCell id="PzbdmLujQhK1LaHi_ERI-26" value="&amp;nbsp; &amp;nbsp; &amp;nbsp; &amp;nbsp; &amp;nbsp; &amp;nbsp;Base" style="rounded=0;whiteSpace=wrap;html=1;fontFamily=Times New Roman;fontSize=14;" parent="1" vertex="1">
          <mxGeometry x="433.27" y="1000" width="94.5" height="40" as="geometry" />
        </mxCell>
        <mxCell id="PQk8EQL0bkAxIyT1UgWA-2" value="" style="edgeStyle=orthogonalEdgeStyle;rounded=0;orthogonalLoop=1;jettySize=auto;html=1;fontSize=14;" parent="1" source="PzbdmLujQhK1LaHi_ERI-27" target="PzbdmLujQhK1LaHi_ERI-28" edge="1">
          <mxGeometry relative="1" as="geometry" />
        </mxCell>
        <mxCell id="PzbdmLujQhK1LaHi_ERI-27" value="&amp;nbsp; &amp;nbsp; &amp;nbsp; &amp;nbsp; &amp;nbsp; &amp;nbsp; &amp;nbsp;Big Arm" style="rounded=0;whiteSpace=wrap;html=1;fontFamily=Times New Roman;fontSize=14;" parent="1" vertex="1">
          <mxGeometry x="570" y="1000" width="104.33" height="40" as="geometry" />
        </mxCell>
        <mxCell id="PzbdmLujQhK1LaHi_ERI-28" value="&amp;nbsp; &amp;nbsp; &amp;nbsp; &amp;nbsp; &amp;nbsp; Wrist" style="rounded=0;whiteSpace=wrap;html=1;fontFamily=Times New Roman;fontSize=14;" parent="1" vertex="1">
          <mxGeometry x="717.77" y="1000" width="93.62" height="40" as="geometry" />
        </mxCell>
        <mxCell id="PzbdmLujQhK1LaHi_ERI-31" value="Main Computer Control" style="rounded=0;whiteSpace=wrap;html=1;fontFamily=Times New Roman;fontSize=14;" parent="1" vertex="1">
          <mxGeometry x="433.27" y="1100" width="60.56" height="80" as="geometry" />
        </mxCell>
        <mxCell id="PzbdmLujQhK1LaHi_ERI-32" value="Axis Computer Board" style="rounded=0;whiteSpace=wrap;html=1;fontFamily=Times New Roman;fontSize=14;" parent="1" vertex="1">
          <mxGeometry x="507.49" y="1100" width="60.56" height="80" as="geometry" />
        </mxCell>
        <mxCell id="PzbdmLujQhK1LaHi_ERI-33" value="Axis Servo Drive" style="rounded=0;whiteSpace=wrap;html=1;fontFamily=Times New Roman;fontSize=14;" parent="1" vertex="1">
          <mxGeometry x="582.1" y="1100" width="60.56" height="80" as="geometry" />
        </mxCell>
        <mxCell id="PzbdmLujQhK1LaHi_ERI-34" value="SMB Measurement Board" style="rounded=0;whiteSpace=wrap;html=1;fontFamily=Times New Roman;fontSize=14;" parent="1" vertex="1">
          <mxGeometry x="656.56" y="1100" width="80" height="80" as="geometry" />
        </mxCell>
        <mxCell id="PzbdmLujQhK1LaHi_ERI-35" value="I/O Board" style="rounded=0;whiteSpace=wrap;html=1;fontFamily=Times New Roman;fontSize=14;" parent="1" vertex="1">
          <mxGeometry x="750.8299999999999" y="1100" width="60.56" height="80" as="geometry" />
        </mxCell>
        <mxCell id="PzbdmLujQhK1LaHi_ERI-37" value="&lt;font face=&quot;Times New Roman&quot;&gt;&lt;b&gt;Components&lt;/b&gt;&lt;/font&gt;" style="text;html=1;align=center;verticalAlign=middle;whiteSpace=wrap;rounded=0;fontSize=14;" parent="1" vertex="1">
          <mxGeometry x="329.7799999999999" y="990" width="97.11" height="20" as="geometry" />
        </mxCell>
        <mxCell id="PzbdmLujQhK1LaHi_ERI-38" value="&lt;font face=&quot;Times New Roman&quot;&gt;&lt;b&gt;Processing procedure&lt;/b&gt;&lt;/font&gt;" style="text;html=1;align=center;verticalAlign=middle;whiteSpace=wrap;rounded=0;fontSize=14;" parent="1" vertex="1">
          <mxGeometry x="560.97" y="970" width="140" height="20" as="geometry" />
        </mxCell>
        <mxCell id="PzbdmLujQhK1LaHi_ERI-46" value="" style="verticalLabelPosition=bottom;html=1;verticalAlign=top;strokeWidth=1;align=center;outlineConnect=0;dashed=0;outlineConnect=0;shape=mxgraph.aws3d.rdsMaster;fillColor=#FF8000;strokeColor=#5E5E5E;aspect=fixed;strokeColor2=#292929;fontSize=14;" parent="1" vertex="1">
          <mxGeometry x="341.88" y="1031.48" width="23" height="24.86" as="geometry" />
        </mxCell>
        <mxCell id="PzbdmLujQhK1LaHi_ERI-47" value="" style="verticalLabelPosition=bottom;html=1;verticalAlign=top;strokeWidth=1;align=center;outlineConnect=0;dashed=0;outlineConnect=0;shape=mxgraph.aws3d.rdsSlave;fillColor=#FF8000;strokeColor=#5E5E5E;aspect=fixed;strokeColor2=#292929;fontSize=14;" parent="1" vertex="1">
          <mxGeometry x="379.77" y="1031.48" width="23" height="24.88" as="geometry" />
        </mxCell>
        <mxCell id="PzbdmLujQhK1LaHi_ERI-50" value="" style="verticalLabelPosition=bottom;html=1;verticalAlign=top;strokeWidth=1;align=center;outlineConnect=0;dashed=0;outlineConnect=0;shape=mxgraph.aws3d.rdsMaster;fillColor=#FF8000;strokeColor=#5E5E5E;aspect=fixed;strokeColor2=#292929;fontSize=14;" parent="1" vertex="1">
          <mxGeometry x="341.88" y="1067" width="23" height="24.86" as="geometry" />
        </mxCell>
        <mxCell id="PzbdmLujQhK1LaHi_ERI-51" value="" style="verticalLabelPosition=bottom;html=1;verticalAlign=top;strokeWidth=1;align=center;outlineConnect=0;dashed=0;outlineConnect=0;shape=mxgraph.aws3d.rdsSlave;fillColor=#FF8000;strokeColor=#5E5E5E;aspect=fixed;strokeColor2=#292929;fontSize=14;" parent="1" vertex="1">
          <mxGeometry x="379.77" y="1067" width="23" height="24.88" as="geometry" />
        </mxCell>
        <mxCell id="PzbdmLujQhK1LaHi_ERI-60" value="" style="verticalLabelPosition=bottom;html=1;verticalAlign=top;strokeWidth=1;align=center;outlineConnect=0;dashed=0;outlineConnect=0;shape=mxgraph.aws3d.rdsSlave;fillColor=#ECECEC;strokeColor=#5E5E5E;aspect=fixed;strokeColor2=#292929;fontSize=14;" parent="1" vertex="1">
          <mxGeometry x="379.77" y="1143.12" width="23" height="24.88" as="geometry" />
        </mxCell>
        <mxCell id="PzbdmLujQhK1LaHi_ERI-61" value="" style="verticalLabelPosition=bottom;html=1;verticalAlign=top;strokeWidth=1;align=center;outlineConnect=0;dashed=0;outlineConnect=0;shape=mxgraph.aws3d.rdsMaster;fillColor=#ECECEC;strokeColor=#5E5E5E;aspect=fixed;strokeColor2=#292929;fontSize=14;" parent="1" vertex="1">
          <mxGeometry x="341.88" y="1143.12" width="23" height="24.86" as="geometry" />
        </mxCell>
        <mxCell id="PzbdmLujQhK1LaHi_ERI-64" value="$$D_1$$" style="rounded=0;whiteSpace=wrap;html=1;strokeColor=none;fillColor=none;fontSize=14;" parent="1" vertex="1">
          <mxGeometry x="301.88" y="1031.48" width="39.7" height="20" as="geometry" />
        </mxCell>
        <mxCell id="PzbdmLujQhK1LaHi_ERI-65" value="$$D_4$$" style="rounded=0;whiteSpace=wrap;html=1;fillColor=none;strokeColor=none;fontSize=14;" parent="1" vertex="1">
          <mxGeometry x="298.77" y="1069.44" width="39.7" height="20" as="geometry" />
        </mxCell>
        <mxCell id="PzbdmLujQhK1LaHi_ERI-66" value="$$N_n$$" style="rounded=0;whiteSpace=wrap;html=1;fillColor=none;strokeColor=none;fontSize=14;" parent="1" vertex="1">
          <mxGeometry x="298.77" y="1145.55" width="39.7" height="20" as="geometry" />
        </mxCell>
        <mxCell id="PzbdmLujQhK1LaHi_ERI-67" value="" style="endArrow=none;dashed=1;html=1;dashPattern=1 3;strokeWidth=2;rounded=0;entryX=1;entryY=0.5;entryDx=0;entryDy=0;fontSize=14;" parent="1" edge="1">
          <mxGeometry width="50" height="50" relative="1" as="geometry">
            <mxPoint x="353.96000000000004" y="1134" as="sourcePoint" />
            <mxPoint x="353.96000000000004" y="1094" as="targetPoint" />
          </mxGeometry>
        </mxCell>
        <mxCell id="PzbdmLujQhK1LaHi_ERI-69" value="" style="endArrow=none;dashed=1;html=1;dashPattern=1 3;strokeWidth=2;rounded=0;entryX=1;entryY=0.5;entryDx=0;entryDy=0;fontSize=14;" parent="1" edge="1">
          <mxGeometry width="50" height="50" relative="1" as="geometry">
            <mxPoint x="390.71000000000004" y="1136" as="sourcePoint" />
            <mxPoint x="390.71000000000004" y="1096" as="targetPoint" />
          </mxGeometry>
        </mxCell>
        <mxCell id="PzbdmLujQhK1LaHi_ERI-71" value="" style="endArrow=classic;html=1;rounded=0;entryX=0;entryY=0.5;entryDx=0;entryDy=0;exitX=0.5;exitY=0;exitDx=0;exitDy=0;fontSize=14;" parent="1" source="PzbdmLujQhK1LaHi_ERI-62" edge="1">
          <mxGeometry width="50" height="50" relative="1" as="geometry">
            <mxPoint x="352.77" y="1026" as="sourcePoint" />
            <mxPoint x="433.27" y="1016" as="targetPoint" />
            <Array as="points">
              <mxPoint x="352.77" y="1016" />
              <mxPoint x="397.77" y="1016" />
            </Array>
          </mxGeometry>
        </mxCell>
        <mxCell id="PzbdmLujQhK1LaHi_ERI-72" value="" style="endArrow=classic;html=1;rounded=0;fontSize=14;" parent="1" edge="1">
          <mxGeometry width="50" height="50" relative="1" as="geometry">
            <mxPoint x="410" y="1139" as="sourcePoint" />
            <mxPoint x="433.27" y="1139.08425144607" as="targetPoint" />
          </mxGeometry>
        </mxCell>
        <mxCell id="PzbdmLujQhK1LaHi_ERI-73" value="" style="endArrow=none;dashed=1;html=1;dashPattern=1 3;strokeWidth=2;rounded=0;entryX=1;entryY=0.5;entryDx=0;entryDy=0;fontSize=14;" parent="1" edge="1">
          <mxGeometry width="50" height="50" relative="1" as="geometry">
            <mxPoint x="318.33000000000004" y="1136" as="sourcePoint" />
            <mxPoint x="318.33000000000004" y="1096" as="targetPoint" />
          </mxGeometry>
        </mxCell>
        <mxCell id="PzbdmLujQhK1LaHi_ERI-74" value="" style="endArrow=classic;html=1;rounded=0;exitX=1;exitY=0.5;exitDx=0;exitDy=0;entryX=0;entryY=0.5;entryDx=0;entryDy=0;fontSize=14;" parent="1" source="PzbdmLujQhK1LaHi_ERI-26" target="PzbdmLujQhK1LaHi_ERI-27" edge="1">
          <mxGeometry width="50" height="50" relative="1" as="geometry">
            <mxPoint x="517.77" y="1020" as="sourcePoint" />
            <mxPoint x="577.77" y="1020" as="targetPoint" />
          </mxGeometry>
        </mxCell>
        <mxCell id="PzbdmLujQhK1LaHi_ERI-77" value="" style="endArrow=classic;html=1;rounded=0;exitX=1;exitY=0.5;exitDx=0;exitDy=0;fontSize=14;" parent="1" source="PzbdmLujQhK1LaHi_ERI-31" edge="1">
          <mxGeometry width="50" height="50" relative="1" as="geometry">
            <mxPoint x="497.77" y="1139" as="sourcePoint" />
            <mxPoint x="507.77" y="1139" as="targetPoint" />
            <Array as="points">
              <mxPoint x="507.77" y="1139" />
            </Array>
          </mxGeometry>
        </mxCell>
        <mxCell id="PzbdmLujQhK1LaHi_ERI-80" value="" style="endArrow=classic;html=1;rounded=0;exitX=1;exitY=0.5;exitDx=0;exitDy=0;fontSize=14;" parent="1" edge="1">
          <mxGeometry width="50" height="50" relative="1" as="geometry">
            <mxPoint x="567.99" y="1138.83" as="sourcePoint" />
            <mxPoint x="581.99" y="1138.83" as="targetPoint" />
            <Array as="points">
              <mxPoint x="581.99" y="1138.83" />
            </Array>
          </mxGeometry>
        </mxCell>
        <mxCell id="PzbdmLujQhK1LaHi_ERI-81" value="" style="endArrow=classic;html=1;rounded=0;exitX=1;exitY=0.5;exitDx=0;exitDy=0;fontSize=14;" parent="1" edge="1">
          <mxGeometry width="50" height="50" relative="1" as="geometry">
            <mxPoint x="642.66" y="1138.71" as="sourcePoint" />
            <mxPoint x="656.66" y="1138.71" as="targetPoint" />
            <Array as="points">
              <mxPoint x="656.66" y="1138.71" />
            </Array>
          </mxGeometry>
        </mxCell>
        <mxCell id="PzbdmLujQhK1LaHi_ERI-87" value="" style="endArrow=classic;html=1;rounded=0;exitX=1;exitY=0.5;exitDx=0;exitDy=0;fontSize=14;" parent="1" edge="1">
          <mxGeometry width="50" height="50" relative="1" as="geometry">
            <mxPoint x="736.56" y="1138.67" as="sourcePoint" />
            <mxPoint x="750.56" y="1138.67" as="targetPoint" />
            <Array as="points">
              <mxPoint x="750.56" y="1138.67" />
            </Array>
          </mxGeometry>
        </mxCell>
        <mxCell id="PzbdmLujQhK1LaHi_ERI-90" value="Pipeline Pack Assembly" style="rounded=0;whiteSpace=wrap;html=1;fontFamily=Times New Roman;fontSize=14;" parent="1" vertex="1">
          <mxGeometry x="837.77" y="1000" width="60.56" height="180" as="geometry" />
        </mxCell>
        <mxCell id="PzbdmLujQhK1LaHi_ERI-91" value="" style="endArrow=classic;html=1;rounded=0;entryX=0;entryY=0.5;entryDx=0;entryDy=0;fontSize=14;" parent="1" target="PzbdmLujQhK1LaHi_ERI-90" edge="1">
          <mxGeometry width="50" height="50" relative="1" as="geometry">
            <mxPoint x="811.39" y="1020" as="sourcePoint" />
            <mxPoint x="861.39" y="970" as="targetPoint" />
            <Array as="points">
              <mxPoint x="817.77" y="1020" />
              <mxPoint x="817.77" y="1090" />
            </Array>
          </mxGeometry>
        </mxCell>
        <mxCell id="PzbdmLujQhK1LaHi_ERI-92" value="" style="endArrow=classic;html=1;rounded=0;exitX=1;exitY=0.5;exitDx=0;exitDy=0;entryX=0;entryY=0.5;entryDx=0;entryDy=0;fontSize=14;" parent="1" source="PzbdmLujQhK1LaHi_ERI-35" target="PzbdmLujQhK1LaHi_ERI-90" edge="1">
          <mxGeometry width="50" height="50" relative="1" as="geometry">
            <mxPoint x="807.77" y="1150" as="sourcePoint" />
            <mxPoint x="857.77" y="1100" as="targetPoint" />
            <Array as="points">
              <mxPoint x="817.77" y="1139" />
              <mxPoint x="817.77" y="1090" />
            </Array>
          </mxGeometry>
        </mxCell>
        <mxCell id="PzbdmLujQhK1LaHi_ERI-93" value="" style="endArrow=classic;html=1;rounded=0;fontSize=14;" parent="1" edge="1">
          <mxGeometry width="50" height="50" relative="1" as="geometry">
            <mxPoint x="898.3299999999999" y="1089.58" as="sourcePoint" />
            <mxPoint x="928.3299999999999" y="1089.58" as="targetPoint" />
          </mxGeometry>
        </mxCell>
        <mxCell id="PzbdmLujQhK1LaHi_ERI-94" value="$$N_1$$" style="rounded=0;whiteSpace=wrap;html=1;fontSize=14;" parent="1" vertex="1">
          <mxGeometry x="939.77" y="1004" width="39.7" height="20" as="geometry" />
        </mxCell>
        <mxCell id="PzbdmLujQhK1LaHi_ERI-96" value="$$N_n$$" style="rounded=0;whiteSpace=wrap;html=1;fillColor=none;fontSize=14;" parent="1" vertex="1">
          <mxGeometry x="939.77" y="1064.88" width="39.7" height="20" as="geometry" />
        </mxCell>
        <mxCell id="PzbdmLujQhK1LaHi_ERI-99" value="$$D_4$$" style="rounded=0;whiteSpace=wrap;html=1;fillColor=#FF8000;fontSize=14;" parent="1" vertex="1">
          <mxGeometry x="942.0699999999999" y="1156" width="39.7" height="20" as="geometry" />
        </mxCell>
        <mxCell id="PzbdmLujQhK1LaHi_ERI-100" value="&lt;font face=&quot;Times New Roman&quot;&gt;&lt;b&gt;Output Orders&lt;/b&gt;&lt;/font&gt;" style="text;html=1;align=center;verticalAlign=middle;whiteSpace=wrap;rounded=0;fontSize=14;" parent="1" vertex="1">
          <mxGeometry x="899.9999999999999" y="970" width="97.11" height="20" as="geometry" />
        </mxCell>
        <mxCell id="PQk8EQL0bkAxIyT1UgWA-3" value="" style="endArrow=none;dashed=1;html=1;dashPattern=1 3;strokeWidth=2;rounded=0;fontSize=14;" parent="1" edge="1">
          <mxGeometry width="50" height="50" relative="1" as="geometry">
            <mxPoint x="439.72" y="764.66" as="sourcePoint" />
            <mxPoint x="481.28999999999996" y="765" as="targetPoint" />
          </mxGeometry>
        </mxCell>
        <mxCell id="PQk8EQL0bkAxIyT1UgWA-4" value="" style="endArrow=none;dashed=1;html=1;dashPattern=1 3;strokeWidth=2;rounded=0;fontSize=14;" parent="1" edge="1">
          <mxGeometry width="50" height="50" relative="1" as="geometry">
            <mxPoint x="439.72" y="794.3" as="sourcePoint" />
            <mxPoint x="481.28999999999996" y="794.64" as="targetPoint" />
          </mxGeometry>
        </mxCell>
        <mxCell id="PQk8EQL0bkAxIyT1UgWA-7" value="" style="endArrow=none;dashed=1;html=1;dashPattern=1 3;strokeWidth=2;rounded=0;fontSize=14;" parent="1" edge="1">
          <mxGeometry width="50" height="50" relative="1" as="geometry">
            <mxPoint x="443.93000000000006" y="897.66" as="sourcePoint" />
            <mxPoint x="485.5" y="898" as="targetPoint" />
          </mxGeometry>
        </mxCell>
        <mxCell id="Uc6875Y9tMyQnbQ6dpTS-2" value="" style="endArrow=none;dashed=1;html=1;dashPattern=1 3;strokeWidth=2;rounded=0;fontSize=14;" parent="1" edge="1">
          <mxGeometry width="50" height="50" relative="1" as="geometry">
            <mxPoint x="443.75000000000006" y="928.6999999999999" as="sourcePoint" />
            <mxPoint x="485.32000000000005" y="929.04" as="targetPoint" />
          </mxGeometry>
        </mxCell>
        <mxCell id="Uc6875Y9tMyQnbQ6dpTS-3" value="" style="verticalLabelPosition=bottom;html=1;verticalAlign=top;strokeWidth=1;align=center;outlineConnect=0;dashed=0;outlineConnect=0;shape=mxgraph.aws3d.rdsMaster;fillColor=#FF8000;strokeColor=#5E5E5E;aspect=fixed;strokeColor2=#292929;fontSize=14;" parent="1" vertex="1">
          <mxGeometry x="717.02" y="750" width="50" height="54.04" as="geometry" />
        </mxCell>
        <mxCell id="Uc6875Y9tMyQnbQ6dpTS-6" value="" style="verticalLabelPosition=bottom;html=1;verticalAlign=top;strokeWidth=1;align=center;outlineConnect=0;dashed=0;outlineConnect=0;shape=mxgraph.aws3d.rdsSlave;fillColor=#ECECEC;strokeColor=#5E5E5E;aspect=fixed;strokeColor2=#292929;fontSize=14;" parent="1" vertex="1">
          <mxGeometry x="871.03" y="846.9499999999999" width="50" height="54.09" as="geometry" />
        </mxCell>
        <mxCell id="Uc6875Y9tMyQnbQ6dpTS-7" value="" style="verticalLabelPosition=bottom;html=1;verticalAlign=top;strokeWidth=1;align=center;outlineConnect=0;dashed=0;outlineConnect=0;shape=mxgraph.aws3d.rdsMaster;fillColor=#ECECEC;strokeColor=#5E5E5E;aspect=fixed;strokeColor2=#292929;fontSize=14;" parent="1" vertex="1">
          <mxGeometry x="721.03" y="842.91" width="50" height="54.04" as="geometry" />
        </mxCell>
        <mxCell id="Uc6875Y9tMyQnbQ6dpTS-9" value="&lt;font face=&quot;Times New Roman&quot;&gt;&lt;b&gt;Processed in Body assembly group&lt;/b&gt;&lt;/font&gt;" style="text;html=1;align=center;verticalAlign=middle;whiteSpace=wrap;rounded=0;fontSize=14;" parent="1" vertex="1">
          <mxGeometry x="689.25" y="920.0000000000001" width="113.55" height="30" as="geometry" />
        </mxCell>
        <mxCell id="Uc6875Y9tMyQnbQ6dpTS-11" value="&lt;font face=&quot;Times New Roman&quot;&gt;&lt;b&gt;Processed in Electric cabinet assembly group&lt;/b&gt;&lt;/font&gt;" style="text;html=1;align=center;verticalAlign=middle;whiteSpace=wrap;rounded=0;fontSize=14;" parent="1" vertex="1">
          <mxGeometry x="834.24" y="920.0000000000001" width="152.23" height="30" as="geometry" />
        </mxCell>
        <mxCell id="Uc6875Y9tMyQnbQ6dpTS-12" value="$$D_1$$" style="rounded=0;whiteSpace=wrap;html=1;fillColor=#FF8000;fontSize=14;" parent="1" vertex="1">
          <mxGeometry x="581.3699999999999" y="757.0400000000001" width="66.57" height="40" as="geometry" />
        </mxCell>
        <mxCell id="Uc6875Y9tMyQnbQ6dpTS-13" value="$$N_1$$" style="rounded=0;whiteSpace=wrap;html=1;fillColor=none;fontSize=14;" parent="1" vertex="1">
          <mxGeometry x="581.3699999999999" y="853.95" width="66.57" height="40" as="geometry" />
        </mxCell>
        <mxCell id="Uc6875Y9tMyQnbQ6dpTS-14" value="&lt;font face=&quot;Times New Roman&quot;&gt;&lt;b&gt;&lt;i&gt;Body assembly group&lt;/i&gt;&lt;/b&gt;&lt;/font&gt;" style="text;html=1;align=center;verticalAlign=middle;whiteSpace=wrap;rounded=0;fontSize=14;" parent="1" vertex="1">
          <mxGeometry x="512.25" y="1043.44" width="170" height="30" as="geometry" />
        </mxCell>
        <mxCell id="Uc6875Y9tMyQnbQ6dpTS-16" value="&lt;font face=&quot;Times New Roman&quot;&gt;&lt;b&gt;&lt;i&gt;Electric cabinet assembly group&lt;/i&gt;&lt;/b&gt;&lt;/font&gt;" style="text;html=1;align=center;verticalAlign=middle;whiteSpace=wrap;rounded=0;fontSize=14;" parent="1" vertex="1">
          <mxGeometry x="497.53" y="1198" width="220.24" height="20" as="geometry" />
        </mxCell>
        <mxCell id="Uc6875Y9tMyQnbQ6dpTS-17" value="&lt;font face=&quot;Times New Roman&quot;&gt;&lt;b&gt;&lt;i&gt;Pipeline pack assembly group&lt;/i&gt;&lt;/b&gt;&lt;/font&gt;" style="text;html=1;align=center;verticalAlign=middle;whiteSpace=wrap;rounded=0;fontSize=14;" parent="1" vertex="1">
          <mxGeometry x="761.53" y="1198" width="220.24" height="20" as="geometry" />
        </mxCell>
        <mxCell id="Uc6875Y9tMyQnbQ6dpTS-18" value="" style="rounded=0;whiteSpace=wrap;html=1;fillColor=none;dashed=1;dashPattern=12 12;" parent="1" vertex="1">
          <mxGeometry x="708.03" y="740" width="68.97" height="168" as="geometry" />
        </mxCell>
        <mxCell id="Uc6875Y9tMyQnbQ6dpTS-20" value="" style="endArrow=classic;html=1;rounded=0;exitX=0.015;exitY=0.845;exitDx=0;exitDy=0;exitPerimeter=0;" parent="1" edge="1">
          <mxGeometry width="50" height="50" relative="1" as="geometry">
            <mxPoint x="333" y="918.45" as="sourcePoint" />
            <mxPoint x="310" y="1118" as="targetPoint" />
            <Array as="points">
              <mxPoint x="284.81" y="918" />
              <mxPoint x="284.81" y="1028" />
              <mxPoint x="284.81" y="1118" />
            </Array>
          </mxGeometry>
        </mxCell>
        <mxCell id="Uc6875Y9tMyQnbQ6dpTS-21" value="" style="rounded=0;whiteSpace=wrap;html=1;fillColor=#FF8000;" parent="1" vertex="1">
          <mxGeometry x="657" y="765" width="43.97" height="8" as="geometry" />
        </mxCell>
        <mxCell id="Uc6875Y9tMyQnbQ6dpTS-22" value="" style="rounded=0;whiteSpace=wrap;html=1;fillColor=#FF8000;" parent="1" vertex="1">
          <mxGeometry x="657" y="780" width="43.97" height="8" as="geometry" />
        </mxCell>
        <mxCell id="Uc6875Y9tMyQnbQ6dpTS-23" value="" style="verticalLabelPosition=bottom;html=1;verticalAlign=top;strokeWidth=1;align=center;outlineConnect=0;dashed=0;outlineConnect=0;shape=mxgraph.aws3d.rdsSlave;fillColor=#FF8000;strokeColor=#5E5E5E;aspect=fixed;strokeColor2=#292929;fontSize=14;" parent="1" vertex="1">
          <mxGeometry x="871.03" y="750" width="50" height="54.09" as="geometry" />
        </mxCell>
        <mxCell id="Uc6875Y9tMyQnbQ6dpTS-25" value="" style="shape=cross;whiteSpace=wrap;html=1;" parent="1" vertex="1">
          <mxGeometry x="799.77" y="847.95" width="45" height="45" as="geometry" />
        </mxCell>
        <mxCell id="Uc6875Y9tMyQnbQ6dpTS-26" value="" style="rounded=0;whiteSpace=wrap;html=1;fillColor=none;" parent="1" vertex="1">
          <mxGeometry x="657" y="861" width="43.97" height="8" as="geometry" />
        </mxCell>
        <mxCell id="Uc6875Y9tMyQnbQ6dpTS-27" value="" style="rounded=0;whiteSpace=wrap;html=1;fillColor=none;" parent="1" vertex="1">
          <mxGeometry x="657" y="876" width="43.97" height="8" as="geometry" />
        </mxCell>
        <mxCell id="Uc6875Y9tMyQnbQ6dpTS-28" value="" style="shape=cross;whiteSpace=wrap;html=1;gradientColor=none;fillColor=#FF8000;gradientDirection=radial;" parent="1" vertex="1">
          <mxGeometry x="799.77" y="748.5" width="45" height="45" as="geometry" />
        </mxCell>
        <mxCell id="Uc6875Y9tMyQnbQ6dpTS-29" value="&lt;font face=&quot;Times New Roman&quot;&gt;&lt;b&gt;Components&lt;/b&gt;&lt;/font&gt;" style="text;html=1;align=center;verticalAlign=middle;whiteSpace=wrap;rounded=0;fontSize=14;" parent="1" vertex="1">
          <mxGeometry x="690.25" y="710" width="97.11" height="20" as="geometry" />
        </mxCell>
        <mxCell id="Uc6875Y9tMyQnbQ6dpTS-30" value="&lt;font face=&quot;Times New Roman&quot;&gt;&lt;b&gt;Components&lt;/b&gt;&lt;/font&gt;" style="text;html=1;align=center;verticalAlign=middle;whiteSpace=wrap;rounded=0;fontSize=14;" parent="1" vertex="1">
          <mxGeometry x="849.66" y="710" width="97.11" height="20" as="geometry" />
        </mxCell>
        <mxCell id="Uc6875Y9tMyQnbQ6dpTS-32" value="" style="shape=singleArrow;direction=south;whiteSpace=wrap;html=1;" parent="1" vertex="1">
          <mxGeometry x="421" y="811" width="46" height="68" as="geometry" />
        </mxCell>
        <mxCell id="Uc6875Y9tMyQnbQ6dpTS-33" value="" style="shape=image;verticalLabelPosition=bottom;labelBackgroundColor=default;verticalAlign=top;aspect=fixed;imageAspect=0;image=data:image/png,iVBORw0KGgoAAAANSUhEUgAAAMgAAADICAYAAACtWK6eAAAQAElEQVR4AeydD5RcVX3Hf7+3yQZqQdiZiFCU3dlQWlvbWDinlVobsGitrdUWoVIqWA8CRjiCCruz6WEp2ZlQ4SCaKnBs4FBphShtkWNbkIItBU5ba6lgMWZnIwQKYWaCRolsMu/6+w0ZM/vm/ZmZfW/en/nOeXffu797372/+7m/77x/MzsW4QUCIOBJAALxRIMCECCCQBAFIOBDAALxgYMiEIBAEAMg4EMgQoH49IoiEEgJAQgkJRMFN+MhAIHEwx29poQABJKSiYKb8RCAQOLhjl5TQiCdAkkJXLiZfgIQSPrnECOIkAAEEiFcNJ1+AhBI+ucQI4iQAAQSIVw0nX4CEIhjDpEFgXYCEEg7DWyDgIMABOIAgiwItBOAQNppYBsEHAQgEAcQZEGgnQAE0k4j2m20nkICEEgKJw0uD44ABDI41ugphQQgkBROGlweHAEIZHCs0VMKCUAgKZy0TpdhiYoABBIVWbSbCQIQSCamEYOIigAEEhVZtJsJAhBIJqYRg4iKAAQSFdmstDvk44BAhjwAMHx/AhCIPx+UDjkBCGTIAwDD9ycAgfjzQemQE4BAhjwA4hx+GvqGQNIwS/AxNgIQSGzo0XEaCEAgaZgl+BgbAQgkNvToOA0EIJA0zBJ87JVAaPUhkNBQoqEsEoBAsjirGFNoBCCQ0FCioSwSgECyOKsYU2gEIJDQUKKhLBLoFEgWR4kxgUCfBEITyOrx4trc5MzF+cLMdblC8TZJ9+Qmpu9HAoPIY6BQvEfi7bZm7EkMaiz2qYeO3ZYlkPzk1IljE8UbxbknbYu+QcZcb8h8RHo5S9JpxLwOCQwijwGi0yTezmrGnsSgxqLGpMamxqiU9b30JZD8xIYTtHNjrP9ipg9K76+RhAUEkkTgNRqbGqMaq0eMT43341zPAslNTl9GbB7UzvvpEPuAwKAJaKyOWNb9ucniub323ZNAcpMzt5Lhq+VQlu+1I62PBAIxEhgnQzfnJ6Y/1osPXQtkrDB9rVxj/EkvjaMuCCSNgGH+hMTy+7v1qyuB5ArTFzLxpd02inogkGQCEstbur14DxTI2JrZw+UuxEU9DHhR6u6Qw9nDcsR5AMmAgRkAA+ZvEJlnJfa6Wmzb0ptLgXUDBcKNxYsk2H8+oKW6OHcbk/V7tUpplaSJ2kLp5NpC+RQkMBhIDMzP/UqtUj56xIysZaLryFCNfF564d7NUSRQIMTkf+Uv7w5yXrdWnDu7Wtl4N8XzQq8g0CSwa+GqR6uV0qVmZHQtEf8F+bxsY73Zp7hZ5CuQ/PjUOqm1RpLX8py+O9Tn557yqgA7CMRBoL59dmetMnc5k9nq1b9F5o1eZS27r0CMxW9vVXRfmw+522EFgWQQqFbKZ8jp/zfdvDFEyxMIMfscgvjxWqV8p1vHbrbDj50dy41P/2q+MPPHY4XiLBIY9BoDucLMh3KFDb911PFTBbcY87IZsra4l/Gx7vaDVt8jCBn2fDwvDwu/eLAZ/63cRHH9ytHFGln8iOz3eSa6AgkMeo0BORL8JZF97/6GNT9WmPna2MSGt/pH3sulK3nl37y81ftfT4GMj88eQmRe7dWkRdzVLbV8YfoOYtrs1U7y7fAwiQTk2uLNzPY/j+kD7AAHn5uf3UUBd7W8mrC8CvbQS55HD93HMD2na7+UKxR3G+L3+NVBGQgshwDLA+zc5PSnA9tgfiawjksFT4GIQj2PHtoONxq7de2VRBx/J2VHSMICAtESMPzh/OSM/4M/Y/s+F/Fy0FMgXjt0Y5drjrOl3rskYQGBgRAwpvm1i9D7ikQgcs1xYeieokEQ8CVgThxbMx1429a3CZfC0AWy+nWzPy39nCzJb/khPqNlHiBj8DmtXhn4RZXNv+ZX3E9Z6AIxL/7opABHHlppmQl9Ao+Ez2n1GgOG6Eqf+HqlT1lfRaELhKyRo/08kQHe++z28vN+dVAGAl4EDDW+5FUWhT18gRhzTICjopGAGigGAQ8CuytX68dGdngUh24OXSA202Ghe4kGQaCdgDHpFUj7ODy22cMOc4gE0FQ4BEI/goTjFloBgWQQiEMgJhlDhxcgEEwgDoEEe4UaIJAQAhBIQiYCbiSTQBwCwUV6MmOhW6+Gql4cAhkqwBhsugnEIRBcpKc7ZobK+zgEMlSAMdh0E4hDILgGSXfMDJX3cQgEp1hDFWK9DDZ5deMQCI4gyYsDeORBIA6BeLgCMwgkjwAEkrw5gUcJIgCBJGgy4EryCEAgyZsTeBQFgT7bhED6BIfdhoMABDIc84xR9kkAAukTHHYbDgIQyHDMM0bZJwEIpE9w2G04CHQjkOEggVGCgAsBCMQFCkwg0CIAgbRIYJ16Aky0t8dBLAbV9xaIFfCDIxbrP6nuaJ/J/KjD2GaQ8lVtWWyCQB8E2DWGjOGKZ2PMbr93E/gjUJ4CqVa2z3t2JgXijOuP4zBzwH+948AfTpTmsYCAJwFmcgt2sqyGt0CI3H4xrX+BEG1tEJFPsNtHkMvLbgQIxJg2gbg0ABMIBBAwRK9yq7JvH7kKZPX4x1VQhzj3kXaWI5Bmcz5HEXYVyAgt+ohK2mRed/ixs2OyhQUEeiaQLxTPkp1eIWnJYgxVvvfkJtefBWzQqNvRgyziZ5c04pKxXGw/MRljXBV5oMJbDqyXrJ7f8Qnt1PfnDVaMLp6zZCdkQKBLAjaRCsSt9lfdjE2bZX67uXb86eaHaH0FwsSPOto8mJUjwerChuMPGpZsbV2Sc2SYzFwUP5fl6AbZjBHQH+pkone4D4s9BcLEp7vtY9i+283ebvMVCK3kv2+v7Ny2yf4Dp62ZZ3Nvc+35hw9lmzZ6FqMABBwExtZcdqwx9rTD3Mo+1Wg0vtrKtK9zk1OnEplfaLfpNsubf317+WHd9ku+Aqltm3u6+VuCXi0YPvOooz7WcT7YaKx6QHZ5WpLPwqfmJovRicSnZxSljwDbK6aI2PVaQi62r/W6/iB75H3k8jJkbncxd5h8BaK1mdj7MMTmDft/apU4rjUPphd2zL4gqt180OKxZWgmX5j+XY9SmEGgSWB1Yfp3ZGO9pI5FxPGv9Urp+o4CMegpGbFxu97da1PjNqkSuAQKRDr4sm8rbKbGxmc6fl3UOmSVCIQf991XCg1ZpSMmZo6TTSwg4ErAEHudWpFlzLVuOx05WfxFY+gqtzKx3bK7cvWTsg5cAgVSrZS3SStXS/JaVrCIxFn4/Ldmf8BEIhJniTNvXj9imRvpxA+udJYgDwK5QnGzIXqTB4lydaF8l1uZ1RSHcXtespuN5XrEcW3Hzei0NezRTXLK5H00YPr93MRM0blftTJ3g9hukeS/GHpbbnde6/rXQ+lQERgrzFwqA3Y9tRL7fbVKqSPmxE4HYvFduu1MIrZPVRc2fttp98oHHkF0x+Y1hWERieY8Esut24kNb3WW7lvc+1Gx/aekoOVPZWBeh8SgfQdajs6iJ5CbnHm3PA5wPX2S3veQYVdxjGkMSixKHbfl2439dtdHD22gK4FoxdpC6fNsjO+VP1Njk/Mp+fd3Xle3ifWd4Ifajm9isyFfmLnAtw4KM0/giInLf1nunt7pM9B7agtz/+Es19jTGHTaD+bN9Z53uw5WWrLVtUB0L4tWlMlQjbxezG9YsfKljiPN7srcg8T0Ya/d2u2GzGfzE9PvbLdhe3gI5E+47LARHvkfzxEbemRxxajrm2gz9iQG3faVo9HWWqX8WbcyP1tPAtm1cNWjzLzBr0EpP08urC531qnNl24Rcfnu29rHMN+Qn/yzE1t5rIeHgNm34jGf0T5pE52/Z9ts1VlHr1c09pz2l/Nmp6y7ij2pt2TpSSC6Z1UvvA3dqts+aZMcBc5zlstp2pzYPiMpaDnamMbVQZVQni0C+ULx32REr5XkspiGzXTB7oXS/zoLxyZnzpQjhNf1ChHzzIG7sdTrq2eBaAdmZHRG1nr7V1buixwFbhqbmO74DEytUlovR5J/cN9rifUt+YmiXuAvMWY8M5TDO+ZnZ/Ny1rFD7jB53c6VS5KR83fPl/7RCejIwsyb2JDfHdAb5Owl6A3d2exP8n0JpL59dqcx/qda2oMc8rbkJjecqtvtaUQOk5IPvLNlmK4Zm5h5j9TFklECctR4x0uNxSdkeJ4Pi+W69Ir6wsa/kjpLlle+dqogASziMK5fvZD9Hl0cNX2dWrU6kvZbm72t6wtz+ondcsBeh5Gxt6weL65tr7drofQcW3QBGfNMu91tWx5C3pGbLJ7rVgZbugnIGcYHDNGdckaR8xqJlN9Yr5T/vKN8zUWrVqywVBwdH0Rs1WXir+x5oux9U6lV0Wfdt0C0TTldKsrggg5fxzUsutn5cZLq9tJ/M9P52k5gMnSzHIJvzk0U1x85WXx7fnxqHVI6GcjF9B9K+oi86f0TM39O5n5UkvvC5q56peR6xypnHybioNPcdxSroVub8Smby1mWJRDt+NB9e3UA9+m2V2KitSNsb9FbeO115MLpbnm28vF2m8/2ucS02TL0FWNZ9yOlk4FcTH9R0nXyxvo2n7luFi2OLH6gueH4I+LST4Gf6zC3Z+87EJfttr62ly2QnTuv22uxrSLR80gfJ/hUuYW3xVmhulC+Rg6jVzrtyIdNIF3tMdsn7dl2bcft3Fxh+kIRl94k8hrQExqPGpdeFXqxL1sg2tnz85u2s21UJHs075NOl1tyNznL5TA6awyf4bQjP5QE9rNtn1Kd3/R15+jl0YE8QGa/xwR7WOJQ49G5b7/5UASinVd3lL/GxIHXFHJKpQ8SO56260V/UyTG50m9doSUZQLfYds+rbpjk37hbsk49cGxkQfIS4yOjMafxqHDvKxsaAJRL6qVub+VC69urikul0NlxxetVCRkW78hh9CgC3/tDikrBJie0dNsbtBvuorjhMsOs01DL+iP9hqyxp3Gn1d5v/ZQBaJOVOfnrpGLsE/qtn/icm5y5t3OOrXvbvw/eeJ+jjF0pgjlEWc58lkiwN9sCmM/naSn2dXvlv7fbXRmceQulhs9bmVq03jTuNPtsFPoAlEH5e7UJeK0PifRrHcy5k6vwvpC6Q4Ryht53+jPHBDLp+W5yQNIJnkMTPc+MfEnDfHpDdueqFXmfslPGBobcnt/MzGv0223xGS2VivlS9zKwrBFIhB1bHFxlV60P6TbfkkAmNWTU2u86lSfmn3mgFguri2UT0FKNwM5DbqkXpn70gs7Nvn/g0EJCHnu9SlZeX1hSorooQNxptuRpMgE8v2ds3VjmfOIgr+XbhvrO/oAkPACASFw1PFThXxh+g5iukiyHgs/rvGlceZRIRRzZAJR7+rby98ylt3V7Vt9ADg2Wbwmf1zR80JM20TKNgG5lXve/ob1L3Ia5vsZPI0rja+oaUQqEHVeB2Gszn/cpWXOxIY+SiP073JoXT+2Zvp1znLks0ng1WumVx85Of3rcrq9VW7l6nMyzw8uKgGNJ40rVKR9LQAABPtJREFU3Y46RS4QHYAOxhgr8KMFWtcQTRDTZrb5cQH2Yq4w81huYvp+pIwymCw+vc/mXZbhB2X+O74eIbYli8aRxtMSY4SZgQhE/a8vbLyHmd6r2z2kQ0n/baTexUBaR1lkYOiYbuNB40fjqNv6YdQbmEDU2ep86QvGkFy4aw4JBLonoHGj8dP9HuHUHKhA1GW5Zfs5Oc/8I9kOvM0ndbCAwA6NF42bOFAMXCA6yPr83O3yoOgU2Q7+p3JSCcvQErhF40TjJS4CsQhEB6sPimqV0vvZtlUo+glN3x/d0X2QhoKAxsFnNC40PjROIhp1V83GJpCWd/rhNAGxft/i6M8x8dli/7IkLMNGgPmvjeEz9u+3T9B40LhIAoLYBdKCoE9Eq5W522qV0jtrR1ZHuUHH2Eyv13eSVp0krdWvtKQkcWv5ouz0ecZKy7xK5pxr83Pvqy/Mbe31Px+22otqnRiBLBng12/ap5/s3D1feqybdxKFHUVa4pMjo36lJTlc78jKs6fZKPhJu57fFFV2+jzj2e1lPaXq8CkphmQKpEc6CjuK1KMbqa4Ofu7TlwmBuA8NVhBYPoH+BLL8ftFCsghwstxJjjcQSHLmIk5P5HIhzu6T2zcEkty5GaRnOIJ40IZAPMDADAJKAAJRCkgg4EEgcQLx8BNmEIiFQCoEIifIHT+aEgutA50mzZ8DbnmukuZv0vzxBCcFqRCI3GLRXx4Sd92XqL5t6N4bUZA/XvvFZQ/yVwL2iigYSrvnuI05yB+3feKypUMgbPsKJLJv2nnMignyx2O/uMxd+RvFtxWJxsnl1ZU/LvvFYUqFQOrzm25nJv3Xk3EwWtKn+qH+LDEmPKP+qt9JcFP9UH+S4Es3PqRCIDqQQ17ae7Gul5FC2TUpfvQ6mKT4nRQ/uuWXGoHo7z0Yy5wsA3tRUhzLi9q/+hFH58vtU/1W/6Ud8BMI3S6pEYgOqL69/HCtUnqFXOR9QfODStqf9qv9D6rPKPpR/3UcOp4o2vdqU/vTfrV/rzpJtadKIC2I9UrpvbSCj21+h4H4QpmAK8NOLO1q+9pPs79W5xlYN8cDfl3NZCoFoiOrbZt7urpj0wPVytwNMuGzYSdtV9vXfrS/rCUdl45Pxxk2O21P29X2tZ80s0utQJIFHd5klQAEktWZxbhCIQCBhIIRjWSVAASS1ZnFuEIhAIGEghGNZJUABJL0mYV/sRKAQGLFj86TTgACSfoMwb9YCUAgseJH50knAIEkfYbgX6wEIJBY8cfbOXoPJgCBBDNCjSEmAIEM8eRj6MEEIJBgRqgxxAQgkCGefAw9mAAEEswINXonkJk9IJDMTCUGEgUBCCQKqmgzMwQgkMxMJQYSBQEIJAqqaDMzBCCQzEzlsAxksOOEQAbLG72ljAAEkrIJg7uDJQCBDJY3eksZAQgkZRMGdwdLAAIZLG/0lmQCLr5BIC5QYAKBFgEIpEUCaxBwIQCBuECBCQRaBCCQFgmsQcCFAATiAgUmEGgRCEsgrfawBoFMEYBAMjWdGEzYBCCQsImivUwRgEAyNZ0YTNgEIJCwiaK9TBFIgUAyxRuDSRkBCCRlEwZ3B0sAAhksb/SWMgIQSMomDO4OlgAEMlje6C1lBIZbICmbLLg7eAIQyOCZo8cUEYBAUjRZcHXwBCCQwTNHjykiAIGkaLLg6uAJQCARMUez2SDwYwAAAP//dRT8nQAAAAZJREFUAwCPp1O9+ylHQAAAAABJRU5ErkJggg==;" parent="1" vertex="1">
          <mxGeometry x="445.53" y="1001.98" width="36.04" height="36.04" as="geometry" />
        </mxCell>
        <mxCell id="Uc6875Y9tMyQnbQ6dpTS-35" value="" style="shape=image;verticalLabelPosition=bottom;labelBackgroundColor=default;verticalAlign=top;aspect=fixed;imageAspect=0;image=data:image/png,iVBORw0KGgoAAAANSUhEUgAAAMgAAADICAYAAACtWK6eAAAQAElEQVR4AexdCZgkVZGOyOqZARYWurJaWBDoymoO4RNEcF1UVoaPQw5REUZxF0FFjlUOBWe6smeg2Jmuam4ERU5RQFaHaxdcVFZncBXwQBFckKOralAYjq6qkVOY6c7YiOpupqu7jpdZWdWV2a++F5Uv34uIFy9e/vmOvAzQP+0Bnz0QS/TvHY3bV5uWTWbCfs60Bh6S/Zi19Aifi2q5Og2Qlrt4bhUQjfcfTGQ8hAgnlWtOsC0A7S37BM7dpmWv6okn9yvnBeBPAyQAjRQUE7utZe9GNK5tYO9CB2G1GbcHGvB1RLYGSEc0QziMMGBsMddkB6YGASOAsIKHXz82e5Pvb8A8q9kaILPq/vAUHuvt359r869M6oHgEDBwVSyePFtdqL2cLQRIeyuiSwusBzYjxAu5N/mvnl77PZ1WCw2QTmuRuWoPwZGOAasYKKd1kgs0QDqpNQJqyxY7nxUjNNI+mN8NBJfHrIGV5k5L3+WDvqZVaIA07UKtYP7ogqt50r2vX54goGNgzFkdSyRP9kunVz0aIF49p+XKHuDrGt/gyFFMfoetifAq00re/I6+pQm/lavqCyZAVGun+VrqgYlrGV9qaSGA/zLmODI3OaG15VTXrgFS3S86tYEHopb9eR5WrWjA5lf2Djw3uYF7q+ujfYvf6ZdSFT0aICpe0jwVHui2kochwPUVie3Z+Tw6Xat4En9se4oD0ABpl6dDUk7Pjv17GYiNbidpZW134kn8LdybXLlNX7KnlQWJbg0Q8YImJQ/09H5tGycSuZaHO9sqCbSW6dQNDqyOWv2fbGUxGiDTvKt3a3vAMeZdI3fm1uaon8OrUouY4zdMPgXcHcG4zbTsy7qtJVtCC34aIC1wahhVyvMcXK+PMnkKBPDVUn7w1jHCRTy5v8KTktpCZxgQ4blJ0vfnTTRAajtd50x4gFeszpXnOSZ2XW8Q4NJSLn2pCP41P/hMMZs+nYdpx/Fc4hFJ84neS4B3m9bA+b29qU180qkn6X45Mqx65Go2H+Apr/VDoFsLufRXp8sX8+mb+ey8iIh8nvDT4ldx/Sru8Q6aXqaXfbbRi5iWmQseiMWTR/K84SrPdSV4sLDDgs/Uki/kMk+V8pmTiIwTmecJJn8Cwr7c490bi9v/znMmxrd3tRog3n3nVjJQ/KbV/z5C/I53o+nZMcBj4b7UaCMdpfyK68mIHM3Drhsb8brJJ4RlZmJgdaw3+WE3clN5NUCmekPHyx4Yv1oduYF3upk8BULjU3/l+YaqcGl4+WM87DoeAL+EAHnw60fwYTJwlZlILvWism0A6dkttbncdBZNDHyAUf0Jvhp6StSyU7KVfUmXfOHzUhEt45cHjomgI+Cg3b1q5GHZolJ28AEv8sXc4JXowFFI9AMv8jVkDCBczhP4n0R7B/6pBk/V5JYCpDthH2rG7ctNy37aeXP9q2OOM8wVvx+I7iCgb/GZ4lzZAu9LuuQLH/P/iSkdG3+Ms6rhOrE1HjATO30bAA8Ejz+C8eVcj+JlsZE16T8U8plP87FxFi8Jry0n+vJHB6NBq2IJ+2uq6nwHSMxaegT3CDfyAf6CQXAPV1CeEOtTNWiCb1feJskwVrOeZ5luEL2cpkMLPcB+HgKCz3otgk94by/netUxVa6Uy1wC5Hyc0/6Tya+wKRFcwHW9q6dv2V6NlPoGEDmApVAC524gOo4L3prJj7AdKzlB9Ip+KYf3dajwQPM7fFI7nbUsYfIUai3nelI2RaiYG/ptMZf+BK9GJflkW5yS1Wz0o44zttpM2HVPCE0DRA5YOXDlAGaLPV9pZVmV8FEpR8qTclUENE9jD0TjA8fwSe3rjTlrcPByLm6y4PM1cn1JLuYyQwR4JPdSP/JF4biSLbnH/K5pJfvHd2f+NwUQMzEwKAcsq201MLiIijAJlMsqUvWOaw90J5IfRKTvuhZ8W4CeRTA+N/J46jVo8U8m/oVc+jBCOIcP7Nf9Kw6XbL312X9XTZ9ngPBZ/DI+69jVlLYx7Qy24642ltfRRXXH7T2icfvEKK8OqhI6KNceNvVcMaTjC/kVT3qW9yBYyqaX86LO4QC4Cvz5bTW6+byqV949AcS0kj9ju85g6oTwUdMa+L9OMGS2bOD2OJ/pLwbCI3wF+VoEOFeZECzPdhN9tpgd8usgdWVGYU3m58Xc4IFIsJwFG16MZJ66gQirvpPLNUBMy34FAA+AjvrR7mzXGx1lUhuMMXce2C5q2Q8D4GKm1jyKCjV//cV85qaaue3JoEI+fQ6AcygC3N+KIl0BxEzYz7ERWzB5DwhrEfCXgHAjAZwHvJ3Yb3a9e1PTGnjIu2HBkoz2pd4JozL+h6pnPmjlj+CKYi59fiuLcKObV7p+Wthkvpy0M27kVHiVAcJXvH8BJK+yV1FbwfNn3ruFwfCF9V1v9RSz6e0KucH9eHt8KZdOyXZif7vRUSfKXd0iIriGKcdyLgPtbVr2kEuhQLLj2Ia7ZsnwO4r5tCwJz1LxNYp9PLW+mEvbDsJhzOH6oSye+N/GcjOCEkC45/guAX1ohnT9hOd5fHg2G70j078wGL796lMXF+qJvPznoXWl/OCtpXz6ZKaEyDP/80xuwhK2Vy5OupEJFC8Pq1KA1PAil++VQvjVPINO8V2vjwrXZdM/6np9/QGEeJG6Wvo1y1WdxzYESLkx3F9d/ebomPFBHh9erG7kTE6RFz2c800m9UBweSxhf1pdYCNnrLd/fzVKfjjWOzuEADtttLhdMXo24kROeWE4M9KuEr2W8+KLF71eyg5+DQmPBEKeo9XWhIQ/JmPs6FocdQHSYy3dCQFdnY2Z/zPcY3z55WdW+HJHpugRfbysp3z/jFSWCJZt1XvmVhJ3S3KLS2PC+8iYFVqEAPu6rVOz/HygnPxSfrmfTwBCszY1ki/kB+92cHQhD+9lrls5x0VYK+mFTed9rDR8wbO1dHG9a2Xx2gASjzUpWpujMgeBdinkBv+jMtWfvUI+c5ED6ObTXbt14WZfdVt6Yc3QfXx95z63cu3i50YdYYq3qzwph09OJ43kMvdIPGi0Lnf+yzy8l7nudug4CyeJ577bSTrw3KVenWoCJNq3bF8+UL5cT3hqHs4b/ftCLvPU1DS/4+tyg7+UclT1EsJZW8WX7KnKP8mHs/vep0kzqm659zi3akaLEhmMKT45+fxYbIuMbaBWTn6T1ID17eyaAAFnjHuPt/nqRpCRWXjyglfrMvmUKeVIeYrqNosYEfe9SC59C+t/kUkH4IV4mLu/qgCJJvo/wmcqpUkuES4SVLbThVIeEqh9tosXGKKJpR9xbx8Garztvn5aQsUDVQGCFPmwijARXCPLsiq8U3m23KG/29xx8btivGIkW9mfmq8SL+TTvEKGq1R4DXIOVuGbxvOHaft6Nzge8M3SqgABIKUDyjCca9xYYsaTx5nWwE+6uowSRLoel5Ui2cq+pEu+G30GOAySxhKkWJ+pmpDw/qn7Oj43PTADIGZvcld2xXuZ6gbpPQrZod/VZZqSGbOSKwHxxtrgY1Byfplvily9qKysIKDCW8Zxd7nTtZ6u6XlOZP3vp6fp/bnngRkAIQMPUXEDGo7yQ/WmZb9EgMeo6BU+4VfhFZ4xpNtl24gMA13NQ2RtHAHqXvlvVKbOD74HZgCE17w/3rha+Jjqbc58sP+K9bl9TX3PhByL1g/rsml5wmy4PhfnOs6h/O8qMFj1PMSVx8LHPAMgYBgNnyXnMX3VG7umu6d8mwrA+6enK+6/f0JegR3vaMikUK/pOvg6igbIdKfMsf2ZACHappEPCOl/GvHEdrT/ARG+2IivXr7Ii556PJLnoHOXbOuSQr2myxsO6Gsh050yx/YrAbJbaj7Xv+Hb9PjAXcd8dYMTgZPB2+3xG/WyfFnPxpSqMRV7WLAbxuvHUdXgvKzKqfnC6YEKgETf2tBweCVuMDZgQ4DwBPcdwtssqehRsUfsUK2f8Ao5gBog4og5TBUAMQiUALI5zm8IEEDYzhe/KuhRsoeNUa0fs44HAg2QcU/M2f8KgKh6YXT0ZT6xN+AmcBpwqGX7pUetNM2lPVDhgQqAOKg2Kf3bZps1vgWe4C8VJQGAp30FPa/R+obzJilbtX7CWyaElnz3rqxb/wXCAxUAKS2Yp7Rq42wgs1HtEPHxRjwq+Sp6nHmkBBDV+k3aZQBpgEw6Y45uKwAy8fBIw/lFhJyGPQhuMu9m9mmWqZmQndBTVwcRqABk3UT96uqqzDQ0QCodMuf2KgEi1Ud8QTb1iAyj4W0j8ipKAhCQ1FNVN4/lbxI9dZk4M0JGzWeKOXs8KNRrnHHjv2OoLVpslNCxsHlgJkAcR2WYdQzsn+pq5IxSLp1inl8zeQm/ZvnzVAQJqCFgQa1eFcUhwXtgjv94NebcWGLgpLnqhhkAQcNQeaa8J/rs+qNUnFbMpf+J+dy+CWNkQo5F64eYNXAsADReUjaMO+trmpmLQHMeIOIVIro6ZiWPkHiQKbbL4i1ivf3lt9Z0W0verVKXGQCBUbpbRRAdkANThRX4YH8HH2y3qjALn/Cr8I7zkHyLZDxa558AXAFEvtPHMrE6KudUFiFeHeuzGz4G0YlO6em13xON21fThq5XyDBWCxkQeTRqDfwhatmpejbPAEjhmfTzLKACko/HGI3MqxQKucwiXmY9DAiuAMA/QsWP9zld8oWvIqvOjvQefBCr3KW7upQddLXsbIzND+TBUMddzWURbEsOXN3Tm9qmOUXtlY5ayTMdA1YjwoxhIp+M95QhZD2QzADIuPkkt5CPR+v8k2EcXyd7Rta6bPpHxXz69GJucA95zai8fEG2si/pkj9DqE4CASm9dYUAf1hHTdUsQvpg1Yy5nbiPE1l/dRBc0MO9hmnZdyLgpWxv3fejIcC5ZsI+gflmhKoAiRiRe2dwVk84ISpfJ6qeVzdVXjMqL1+QbV3GGpmxuH0WZ32AqWEwwHENEFaq5x/shBmB4Eg+8L41I72DEqLlXgPlEx0KzzZNGO5Q1ZN9VYC8NLxCrl9cOSFad4NIK2Muhlp1lSlmSnmEoPru1SsLnt7XRXuOm6P/q3jgFD4Iz6mSPqtJPRW9BjW8VldhLGJ58l6RxjtVAcLpQAbJ+3CVPnPFQ63VskIgcq0mKUfKUyzn9Yl6KLKPs00sayrduDkuMff+EfC8aNw+sVNqzoA9c8wAeU5JvddQML4mQErDmceJQKkXkXJkhYCXAneWeKuo2xr4kJSjql/sl3qo8k/ysdyMCd1k3mxvCUDp2lA77OSJ77U9VlI+N9CO4qqWMbXXQADfVx1rAkSsccgRgChfwyDAJ2Pj1yVE3FeKxZNnG0C/cKF0ZMJ+FyLsYcs+HID2diXURmY+CHpgxiogzNrPIbxRDtLZMEB6DceAH3PZfvQaa2ROzLoqQl2A/HXN0BoC9V5ENPPK0i2mZX8r2pfcTfabpS13XBpnfd8gxAvdIpQm3AAAEABJREFU6BK7xX43MmVex3ldVtcaE+2PzqzQSgawmxNFuVot+0MwycDvbJ1I+fKAnIqdPeNzjdtxfIXKl6Ew94bSGcwovi5AhLskt4sg3ChxF3QKOvhr0xrIyHf0XMhVsMpKVVfEkRe4fakio8EOD5EuLNvdgK9atpxF1Cjz88KaJsmjPAEo9+rV6uh3Gp8U99xAG27wW281fVFZoYrAf3Oe0p0czNcwINCthWy66gm4IUBEezGbPp7R+kuJu6DN+UzXz1fmH+MLMT80E8nFsfjSXerJyytIo7xsHOWrnkxZGl+p+od6MlXybi7l04urpIcmqQz+Bh+GaXdl+SA7LBofcPWmTTc2Sq/Bw/eVfBxeCnzR0o1sPV62+1Ze5VxUi0cJICJcyA3uBwiVHyGRjMa0JQIcDoTnEzpPmJb9BtOzMct+xIwnV8f4cj/vP8P0SleXUZJlY+7uTmKyGquewfFEMZc+bkZqCBMoMu/ITqsWt90Xo1byHL/tYp1yNfwu7qmO8VH3q9wTf7UeOKQsZYAIM/ckclNgSeJN0KYsux0btwfw2jNXWq437MBpzX09F+A1Bse7WM+cCKXh1LPQhe9kP/r77i6CIuv0vFKG5eXf5Bf8aATpNXj08R+sU66Gb++HTtHBx9w9rPMA7olFryTVJFcAES18EJo8dPqexDuIHmC7mgVYB1VHzZTiU4PPcSPvxe1xAVPNz4ipaStz3c4rhZ9gnSne+zaTp4CI10UT/a5e9Tq9IDNhn8YrVHcigNJnOKbLV9+ntzi9v5TLHF7IDSp9Mtw1QLgAKOYy/8pO+JrEO4CuKubSc/q+qWIus4Rpe4dgT16g+KL0AG6Ie/KjIobRV8yljx7JZ8orZByXXkAuvHlqYiRjpdsXhktB0muYlv09ILic93uZ/Ar/QwYs5Hqd70ahJ4BIAYXs4EWAcDzHZ2tFZQQBT+UKn8o26MAeWJdPP8oLFNeVeOXRDRWzg3dO3F7EWjaGDevny9n7iY0prmJbGAg/2HbnlPLFO9Ma+DfuNeS1tp9xVVJ9ZgeQlvFxcjBfNH6wPuvMXM8AEVXFbPpGAx25YfAq2W8jXSXlFnKD7S63jVWc/aJeeTZV4l7pU2zJG0xewq5vjW5o+ADeO+LL9uRVTr6UUL69KeGloKoyRPcZhAuL2cyKqvkKiU0BRPSPZIeGi7k0n8WdgxBA6TZ5kfNC4/qdg6Q8KdeLDi3jzgPSK7Hfay6DNtZGB5rxge/U4oslkieP4dhKIPR19REJlhfzmQNG8oP/W6tslfSmATJZSDE39NNCLn0YEZ3IQ6+7OF3pRkfmaxTk46B3iF7RL+U0EtD5/nqA/f7fyMNZz1qRjjcTA4NT5eWRV9OybyBCGQX4eQ/fAwDOQYV8WpabeSo2tVT3cd8AMll0KZ+5vphNf8zYZP42gChXO8UBcvv8JIvK9im+SHgxT6o+suDN+dtwj/FJ0asiqHla44GCDGcR0wDgrQAi27SSPNIAiMbtEw2IrGRFVR9S4nSPAYeKm8znifjQTz0qmCHmO0AmS5DX9RR58lfk4RdTHwNmC1kpIcQPCnDkjMTwPk+2si/pki98zL9LKZs+uzSc/snatSmv499JU8a3u6Xmc1f/j+M7+t+LB7g9B1iuiVc54ZV8Yfg6RLiW9ezK5Ff4rTyuXcwNJt2/+6y+CS0DyPRiBTCyUlLKDj7Ajr6zwGckWWmRrexLuuQL33TZZvejfam/N/+2fiWvZqxsVtdcl+82XpUh9M+9+oGAZPnYq/gMOUK4uGvz9QvXZdMtmf+2DSAzatamBLnLFEnAAR/jIneMxZNNfdSHdczpMDx8xVsRNL7AB2ZuNh3Bo48/gIMfl5HGi49e5Nd8d0aVlAASjfcfvMXOZymvZ88oZZYSuq1zd9hA628DgkMmTSDElt1QN1lG2LcvDa/IGmP0ea7nKFP7A8EVY6POAcU1g//V6sKVAFLKD907f2yTS2IJe2GrDfJLv9w5bMCG2xFgv+k6Tcv+xvQ0ve/OA4U1mZ8joM+T7IY2PM6rmccU8+nTvb7so2EJ0xiUACIyOEpLiGBV1LLPkP1OppiVPIJw7Ha2cR+mauFLKt8+rCao0zZ6gOePck9e/8aUlsau6sL5C3k1U660t7SgqcqVAVJ4Jv08rz4sRoDLZCVCXp4wVVGnxM2EvYIA7wbA3aHeLwJ6wl7PP4p5xVz6fF78aGWP/DQCfobLOfXFbOolRbN8Y1MGiJRYKD91RX+UlQha3/UTXs8+SNI7gaJ9yX1NK/kznm/IUmRDkwjgQ9HE0o80ZNQMDT1QzGZOY6b/ZPI1MDCuJ2P0gEJusOHtKr4WPEWZK4CIHCEtli0g7Ms9yr1mInlFNDGwfTltlv6ilv0VdOBnAHgAuPghOd93wa5Z63jAcDbIRUClW8jrqJnMWsO90gkMjBNLwxf4cRv/pF7XW9cAKWWH5C0St7xdEuGXkeh+Mz6g9BrQt+V8iJjx5HE8pHoQAS4BwE3B/W9LnrAvcS+mJaZ7YGTNhS8QYPNneqSbRseMA7hX+u70Mpra9yjsGiDlcrpQehGnHB//254RfwUfbPeaVlJuLxlPbdG/lMH0M0C8kYdU8nmFZkoaakZYy07xAMJzU/bcRZHW8iLQFxkYn335mRV5d8Kt4/YEEHmSjU2ymaYHnpPg7QyU30StgTPlIt10Bq/7PYn+Pu4tTotZ9j0AyCtU6Go4BXV+USu5sUesw6ez6nvAIMjW56ieSwDfRwJeoUpfV51j9lI9AUTMLcrqBdBjEq9C70OgS0dp/aN8QF/Cc5QPbNWbqvuG7ek6+vouXxCzBvYxLTtpxu0HHDKe5t7icnamyucOpquru4+Ax0b7ltVf9aqrQWeKBwq5QZ6DyMlL9pRoBID+rZRLH1vw9P5kpTKaYvIMECmVhWWoJdFatDUf0F+ROUrEWL8uGrezMe4B+IC/XHqD7oR9aMxaeoQZH+C5xMDpUctOmdbAbaZlP7nOeeFNAvotK04Dwr68bWlAZ0wv+/rgYTKccwCw1okTNv7wdgfhgGIu09FviudjfKPJbmMjucw9DADllSBe9bKY/1A+4E+T3oC7ZJZ37ub5y41A9HUEOBeAPsl2+Pl8AKtTCrsxeP181FOp0LAxleSdzoazCAB/B9V+CGv5GDizmBs8el02/X/VWDopTQUg9e1FmbDTWH2mYORyw3XEykkwvFXbSgEJA2Af5At8fOK7b5J4nnE2do3uWsqlv15burNymgZIqfxpM1zWWdXybE2XaQ2c71laC1Z4oMAX+Ir5zMJJKuTTFxeevECeEK3g6+SdpgEilSvm0hkeNv1J4sEnWizPjwS/HroGfnjAF4CIITwRbzRhF7ZAUPn5kUBYqo1stQd8A0ghl/khjzHDsRJEcEhPPDnjNvlWN4bW33ke8A0gUrVRkAk7bJC4GnUul4N4U+dapy1rlwd8Bchf84PPAIHnFx+3q9KK5ezI12fafn+Zom2arU0e8BUgYnMxn5b3Hz0u8cAT0hWBr4OuQFMe8B0gYg1P2JOyDQPFEra8oiYMVdF18OCBlgCkkM/ImxXb+mikh7oriRDBiVv19vcqMWum0HmgJQARL42OGbLsK99jkN32k48lRtDQd/v66M8gqWoZQOSefkKQ+UiQ/FHdVoR9zb4Bea9W9XydGloPtAwg4rFSNr2ctx1/Qxrb2DCQQx33rEJDozVD0x5oKUDK1iGF4j4tBIhFW/CByrKP9F/HeqDlAClmM/K2izs61gMuDENAvsZzTMSFiGYNuAdaDhDxT8QwZML+psSDTqa10w+CXgdtv7oH2gIQeZcrAYTl5QifjPXZ71V3seYMsgfaAhBxUCmXPg8BHpV44MmBGwJfB10BJQ+0DSBiDQHxGF5iwSbuDffgCfvngl0Lbb2KB9oKkGIuI5P121UM63QeBGzl+2g7vfpzxr62AkS8aoAh92n581k1UTh7tJlp2Zf5XLxW12EeaDtARnIrnkaCizvMD17NOWObvmSPV2Et1/keaDtAxCWFfPocno88IvGg06iD+k0oQW/EOvbPCkDK9hCsKG8D/scT9kNNq//AgFdDm1/DA7MGkIkvBYXilngAo6PfDlij7XWyggdmDSBiG5KxlLevMQU99MXi9lmdXQltnRcPzCpACvkVTwJCYN6yV8/BhHBRvXydF0wPzCpAxGXFbHopED4s8aBTzBrQt8QHvRGn2T/rABF7KEKhuE+LV+a+EIsv3UXqpCkcHugIgJSG0ysRw/HVWQeda8JxaOhaiAc6AiBiCI0aKQB8BQL+Q4B/jsbtRQGvhjvzQ8xtdErdis+s+BOE5D1UaMClneJXbUdzHugYgEg1yhP2Wh9eEYagEMG2PGEPxZ3LQXF5q+zsKIBIJREpFMulBHTOttumNpM6aQquBzoOIIVs+vsEoPxZt052/ZubbNDLvp3cQAq2dRxAyjYbEblP6+VyPMB/CHRstC/Z8g+QBthFDU2fbYaOBEhpePljSHD5bDvHj/LRwVDUww9fBFFHRwJEHCm3xPP2Iaagh31iieTJQa/EXLW/YwEiDcLXFEKxXEqE+sOg0qABpI4GSCGXlpdGCwXQtRUmbxlN2KFYnauo1RzY6WiAiP8diMh9WuskHmTiOdVZ0b7F7wxyHUJmu1J1Oh4g63LL/8hDrVBMdJEi31RqFc3UMR7oeICIp3ioleLtb5iCHQiPjFn24cGuxNyyPhAAkSZBCMdyKQFcIPXRFAwPBAYghdzg9wCIKRiOrWPlblHL/kqdfJ3VQR4IDEDEZxHquhAQihIPMiGAXvYNSAN6A8gsVe6l/PJHiOCKWSrez2LnmZZ9pZ8Kta7WeCBQABEXlHLzl3Mv8iuJB5xO7Y7bewS8DqE3P3AAAUg5GI5eBAyksLyCNbRACSBAAHjZ9xZAvCn4rYIHRhMDnwp+PcJbg0ACRJrDQONSXjItSDzIhER6wt7BDdhxAFH11cjw8ocBIQxX2Hc0E0l5w6Rq1TVfGz0QWICIj0rbz88AwYMSDzQRLt9yh/7uQNchpMYHGiBwX2oUjVD0ItAVMfTHeDoQZEYH2uTKJHmGHQiD/40OhM/2xJP7uaq8Zm65BwIPEPEQGmN88ZBekniQyUGUW/uDXIXQ2R4KgBSyQ7/jXqTRhD0IjfeBqLX0c0EwdK7YGAqASGMVN51/IQLcL/EgE4Kjl307qAFDAxB4PLXeoVBM2HtMy0530DEyp00JD0C4GUv59ErefIcp6CG59U79VtArEQb7QwUQaRDDcHgugi9IPMg0OmbooVYHNGDoADIyPPQwkMOrWu30bkvKOjraax/SEs1aqbIHQgcQqfkWtOASAviFxANNhr5Pa7bbL5QAWbMm9SYQ8VBrtt3bXPkIuKcZH/hyc1q0dDMeCCVAxCGlfOY23n6bKdgBuRfZLTU/2JUIrvWhBYg0SYQi0os8L/EA02bm3966MMD2B9r0UANEngIbkRoAAAOZSURBVGEHCPhQSw4vxNO7rSXvlqim9nog1AARVy54c8HlPGH/X4kHmSLQpe/TmoUGDD1A1q5NvQEheOkcAR1mWsmjQP/a6oHQA0S8WcoN3o4I10k82IS6F2lzA84JgIhPxxyQi4fPSTzAtJOZGFgcYPsDZ3pLARLbZfEWsd7+/WNx+6yolbzFtOwnmWg2yEB4hFtnO6ZgB6Lz/fKfRz1PRrktpU3LbcttHGyH1re+ZQDpTtiH0oau35NhrCaEixDwWDZlZyYdgu2BnaUtpU3Lbbuh62Hu1T4R7CrVtr4lADET9mkGwT1cbB+TDuH2QAKI7ohadiqM1fQdIKY18BBQKJ7LCGN7t6xOCHCuadmv9/T179WyQmZBsa8AYQc9zRfm9p6FeugiO8MDmzmO8fvOMMUfK3wDiBm35bYOPaTyp10CrSVq2YG/MDvZAL4ARCbkgHDapFK9ndse4OHWfjyaSIbBC74ABAlC4YwwNGgH1cHu2TH485GmASJOkDNGBzWMNqUzPLC502Xs2RmmeLeiaYCMRfA93ovXkqH2AEHgr3s1DRAEfF+oG1lXzrsHCHbzLlxLsr3pTQOEl3U/1F6TdWlB8QABBP4ZFh8AgoF3QlAOuKDZiQiBf7eXDwAJWrNpe7UH1D2gAaLuK805Bz2gATIHG11XuYYHqiRrgFRxik7SHpj0gAbIpCf0Vnugigc0QKo4RSdpD0x6QANk0hN6qz1QxQMaIFWcopO0ByY94BdAJvXprfZAqDygARKq5tSV8dsDGiB+e1TrC5UHNEBC1Zy6Mn57oHmAEDzot1FaX1g8gI8FvSZNAwQRftVaJ2jtQfUAgvN4UG2ftLtpgBDRw5PK9FZ7oMIDhE9U7Adwp2mAOIDyztsAVl2b3GoPkEHZVpfRav1NA2RdPv0oheGLsq329NzT/5oxSo8GvdpNA0QcQAgZ2WrSHpjigfTIM0OBH377ApB12fSPgMrf35jinwBEtYkt8YCMKIq5dChOmr4ARLxczKdP5+0wkw5z3AOlXPqfw+IC3wAiDuGzxk5AdJ/ENc1JD7xhGM57w1RzXwEijinmMwsJ8dMS1zR3PEAA5/EJ8u9GhoM/75jaar4DRJSXsoM/MMCQt+rdyXOToqRpCq0HsoB4FA+r9Ad03DTxSG7F03xGOaqYT8cQnX0Q8WQiuKY8BJNhWMgptPUEuBmQlnFbfspwYK8Fb87fo5gdvNPNsREk3v8HAAD//3+DieMAAAAGSURBVAMAG5pv8ekhMzQAAAAASUVORK5CYII=;" parent="1" vertex="1">
          <mxGeometry x="583.1" y="1003" width="31" height="31" as="geometry" />
        </mxCell>
        <mxCell id="Uc6875Y9tMyQnbQ6dpTS-37" value="" style="shape=image;verticalLabelPosition=bottom;labelBackgroundColor=default;verticalAlign=top;aspect=fixed;imageAspect=0;image=data:image/png,iVBORw0KGgoAAAANSUhEUgAAAMgAAADICAYAAACtWK6eAAAQAElEQVR4Aex9C5hcRZXwOdXzSAghSXeHKPKY6RnCYwOCARbxwUNQUVBA8LGrrL/vRRBBJJmeIINkeiKg7ILoLov7r7oqAqLgG0UBBUUBERQkzHQPBJQw3ZNATEhmpu/Zc/ox09Pd91bd24/p7rn3q7qPqnNOnTpV59a7SoF/zbkE9uxd1xOKRG8JdUeTGRuJ3ry0a23XnDPmMwC+gsxxJgh29R+dtqxHmI13AEIoYwHODCj16LLu6KHs7ps5lICvIHMofIABhYpuYRZ2Y1tsdlcINwtMsYf/XT8J+ApSP1mXhBTsmjiJHV/B1s6sDHbvPNHO03evvQR8Bam9jG1DQIXH2XrmPBCVFiYH6j9qIAFVA5o5kv5DKwGiY3UwCPB6HYzvXzsJ+ApSO9k6Uu7qGlgACEc6ArEnAfxjBpbffVN/CfgKUn+ZZ0LcpiZewy9tbHWm7e+BiVfrgHz/2kjAV5DayFVLFQGNq04W+dUsrUBrBOArSI0EqyNLZBkrCAIZw+rC9f3dSaA5FcRdHBsP+riBNkA82pwxPAYExxzBh6ySBHwFqZIg3ZBZ9vSkKMcCFzgLgpsmj3IB74NWSQK+glRJkG7IKBfVqzxd9ICTx/Wf3iXgK4h32XnHRKUd/ygm7qZRX4zrf3uXgK8g3mXnEXOAZe6+0c3jIa8DEFyPwfponiTAieUJr2WRah2xUPfkERyGm/YHg2fM7uGenYdn3vxb3STgK0jdRJ0NCMG8ezeLMXO3SPndvTPiqMubryB1EfNMIITmA4QzWNk39OdlZQVRx7uvIHUUdq4NcXwFQfolSAXC84LqK4gXqXnE2bP7pUMYdXe2Xk1wWU90lVdkH8+9BHwFcS8zrxiQVoGKSwBF3qtonhmfx4i+gtQz8Qlcj38Us+cPGBZLpLbfvoLUVr5F1InHMoqcXH5W0sh3GZQPzhLwFYSFUA8T7l53AADuCQ4XAf6Re6pkhxMHKHj58p61vU4Avl/1JOArSPVk6UxJkbZ6hUT3ENI9zoQA0hZqaelo+P5mEvAVxExOFUORwfpzLkF+RZbSKgiWLLaqmD2fgI0EfAWxEUwNnLXjH1OT7XeK1YaN/gpDrYyqBOArSJUE6URmxf5rI+z/craOpr1jIiXWESjr2RXeL6qllwX175VIYE4UJBzpf08wEr0nFIm+EOru+yW/X1pJJBodd8qqwRyqAJ7Q6PH2yp/s4iJ5ItQTvYvzyFZ5Bruj7/RKrxK8uitIsCd6FQF9EwGky3MPQDwOAQZCkb5HlnYNLK0kMg2LS5m4VpU9i9xPma8qAzUitmTftcu2qYnfS56A7LjREnkiwrdZWTbUKFhbsnVVkGAkegESfKo8N3hIQE0MlvdrelfZ4qeqkeAMc0xVCdoRq7N7IKBECeym06zhPHR+PVmqm4IEe/tezX+FKzSRO13j36zeK2rA+CtqQHPOSbLiO1alOA9dJXmpXozWRUH27I6uQAu/y5FqYzsfzR41iPSiGtBsBJKWhok2yUuLD+wLaeCq4l0XBUkr+DZzq/2L8jjAHxiuFU0t5NzRioICwAdAf63o2AVybIQeskKIWiTcLJa49+EKaWTNcrT54JHkH9l4Na2zNDprxXxLdmoQfN9IXty5U49Ge00VJNTTdxrXKT9tFGEGag/QTfxoKRNoD5is/5Bem8u4fj1tWQi/Z+toAh2TTV3NKhe5NtXuJg+sCUeiby1Hp1puNVOQzIQ6wq+7YPRnzw0PjbmAbwpQTFvaTEyIdyfjsYFCSwj36CKIk2iifDoyDeW/eWTgeQD6uSlTBHDj0u7+/Uzh3cLVREF6e8/rtEDdzswYJyABfYvhW86gUloZKKLtxRFXhCVuxTAQ0CtfCU4TOBDBjS7Y3L0N6XbJcy5wjEFroiBbrMU3cLvjIGMuACYDCzpvdgHfPKCWQSYm+ntxhAgtrYJgmrSlUzHdZvgOLOyUTp1JU14J4NBMnjNFcAFXdQUJ9/R9lMN/L1tzQ/CjsccGSjKJOYHGhUQF2kzM1alSZSCllUdataaC5PLCT1ym6nvD3X0fdomjBa+qgoR71q4mwmu1oRYBcCZyU6QWYTf2Z5oM2gkEpcpgUIKAZUC7scVjyx13WLjOE4R4Xe7obFu6bj2qpiDS5UikbmMG2tm6MTt3T3d8zw1CU8GiwV8eoaQEIavUrTje/GPRlk7FOM3yvbvVcSvzupOtG9OuEG6XvOgGyQm2WgqCATUp9UbX0x+4cf7d0dEBt4JwilND+SHq//JUpg0CqrRdUhIxUi2rIJInkDN7SZz1Dvvl8iIXQnpgHURVFCQYiX6Gu+beqAusnL8icF2UlqPTsG6kL0FIlfZYBaxSt5I4oqXtISvBaSIH/nl67NmkN/IYXH81olqxggS7176RVfVSj8z8PRlM/dgjbnOgGZQg7ZZV0gahgF5BsIVLEEnc1NLUD/lZIht20xvCy8K9647TAzpDVKQgoZX9r0BUUrViHXEOyMb3JnjweuPuPBsaDe2MHksQSKuSdklxRC2T9k0xUjN9Z/PGLR5ZVpS2bpE86hE/g1aqIBlng9vqj7TDFEijvIJFTspjEWrAX4OAWKhvJ9BUqTJQu0kbBFq6iiVJyJ0V3qvgCCGQPCp5VYh5sJ4VJLQlfA0ArfYQZh5lcyr+xC/zHy37JEufiRdMlVQj0hPt2hKEi+2WbaTn88P46JMy7WRL/tv9k1aHtoSvdo+XxfCkIKHuqAwEfixLwuMd6WaAm9MesZsGDRG1mTj5xBXbiiO0dRReLHYr862lXQanyZwyecR7KZKN7ceD3X1nZl/d3V0rSGi/dQcBwg3ugimFJmj96lUm1kS6EuSlDFzJbcBipwm2DkavfA7ITeOlCCtVEOAf1VczeddlrF0pyPKDB3aHgCWTEDtdhlMMvml8ZPC+YsfW/HbOxFxNcqpKOfmxuLTKxzDNb8YSg7/iWGxmW4nZTfJuJg+7oOJKQaydE99k2p73hWXcnMGWb5znIiqPRXKzswRlppnMADsqCIGz8s2Qafo3QqBvVCEWvbk8bEzKWEHCPVFZ+HSqMWUHQGW15tR2myhrqljkpAROfsCZxlH5bPhpUueqVclP5YHtC0yFYKQgsosEEch2LKZ0neBGxkZjDzsBtJifJhNjSQ/WTPyd/ARKP41FoFrBJuODD3A8NrGt2HC19grJ0yaEtApSsCOJFtYkQAJws8rQhGSjw3guQQgcSxeON2mUj0FayRB+tUrRaTPdGUWb6acQuDsWVlSJMVAtunLQQT4LHfwA0KmUcPIDuRbLbd5YC6UNXK3oGu2M4qggwZ7+K7k4ki1CtUzx386k4f1QMj60UUvMPUBDYpj0mBDZlxIK9KsKu7oGFjRk5GvAVOqp9Y9zftQdMMQhk1mDPrMzSv8QI9gaWwUJd/efikQX2WIWeiDGANSSQqdy74hwYzn3lnXbsV1TvWKpof2kRAJ7v7zMUh2gDQNa6CIwyEOIUrJ+zizatFbyuh1sWQVZ3rO2l5DMijOC32Db5AbuUXmLXSB5dwsqH/DJ02qGJ7Z16tsIRA6NdP2iqcBk623945S2hPi/Tv4ZP4K3tW2fuBw4b2a+NTfJ63Y7o5QoyF57DexmEcoKP5M/098CAKdbU+1a5UCAe3lwsCq9EJr4No53elIrQ3Jee+6kPJl4qoClV8IMZGvccnnofl1sJndrP1nR5BkA9LwOlv13D6BVdsO6EgXZtWDX9QD4D2BwKaJ3PZ+IbebMf6gO3AL4jg6m1fynAmo3fZyslxYf2BdaHlm3f6ir7x/Fyru4cbtuhw4frXnWk8UC4aq/dgq8Ajx0bPTK59CCdzKKgcFDQt39/1MMqAodQpH+cwDwn8Hg4vbExWOJIZkCYAANwEq0EpryqoDpNEld2JkA4mDHBCYtsDaCwt+KlXdxQ8DLnJEBEPX7bkGLXRZiry5KFkJmImxydOhuho2y1RukfyneGWVaQcK90VcB0HV6KgyBcHtyJHYlv2UMpUm7CyADvoPtvDKo0KAEqVAkBguyKgyh4dARDEoFsn6TZzwVj3FPFf4g/+305DbO9YU7o0wrCFlwlRNigd9TqrNjViljOGd/eSgSfUMBndZ/rcO2PJbBgqxWEnQosu5Ejs8ytk5my3hi5M5CgLTV/j7+foqt1iikz+eBMgrC9d4D2UF7CivDgFLW6WOPFW/ydnMaAW8VfyfLXXRnOfm3mh/WY2M3y2BBVgsJlsjS5qFsXrw5U8XKR33r6MBWRMuwFoMn5g5ehYyCKECjwSZuHH1kbHhD2TM8LEprd+VGAI7cWdzxlWe7dZ9yCi0Rmo0jVSAGRFwT3ufivSog0USoZwUQ4Uwdw3Z5MTmy4UEA/DgYXJOU1QklsJSeMukK25JMDP2XwJez44kNd3C/c6qcX4FbMBQ5wKikKsBpulf5+1AAfseMOzcmGaAKZn9qb7tvaQ13OK8Cj1Uhkcs7QSdi/BNOZvKiDVAqPvgl9tIu4W2nziTDQUZBkpuu+Ct/DLN1MsuCvZf8gxMAV6G0XblczL3LiUaz+wV7+veZSqu7OB57s62X2U8B/WJFz8Ce9QpwLsLhweh368K1CByr+st6oquYhq4N82T2GAbIKggjiLlDbo7WSjtuDsfFn7aaRQQ8eHNWa1azDh7oQLJkn699HOVYA0+WfWQKJm4DGFA1IN8AJM8KENDpOkZQZbahsgVDQsc8nEOc1oVpYSLRT3OeDg+UHgRbf+5Ok54D3SE4wWD3/ifYEmlij+CuyUEwHGSFmesh/jP+G1dPz0WAU0DhaUB4HhBdw8+y7b0Z1KI3gqODkYlLilxb4jPYtb/kvSA4X2OpkfW/cAJRQELHCQQ4PX6SB5hWkMCOScncU3mPck9GfAMcN6A7qfaWcriFbvy30xaVhfDN8L5kv3Xd/JMxXqnGcbpfobU//1RWJ+NDF6QSseuS8dgPU8ODt6USg19MJYbO5+erSAVWEeAfGd7IIEB0edenX2YE3ERAqNCkau6Y9+SQHQI4QRPtqcD2yentqKYVZPPmq7Yz8vTgig2RztCmqdfb+GWcUSltNYsBuZrF9xYy7W2WrLg0qzoS9bNiHD02skHX7oPx4cv/PB4fPIx/a4OG4upIY/tlhrBNBEbaPKM0u59ssRa/liPsvOEI0a9FFxguY6YVRL4QabruJd9lLdFJZd1zjsnh9dxAJV2v2NJgz9o351Ca/iE9SNy2MprzgxYdx6VDzG2kUyOxdVx/fpsJHiJ8ROZymcA2Aww3rE9mPnXLKTaPJQY1MzqM2h8/47CmzSwFAUsZKAi8aRrb7oVQ9uu18824IykeE8m8Nv1NKTjXKBJEZ+fmBhmBFwMlE4PfRwKjsZWOCfxQMX6zfivLoHpFpM1z3MjXNtB5cHdWW3yWgnCdV/rutzoKEunwxSsHwk4w3BCSZbpOIOKnLTIFqBkst83+yYDPb6YSQxWvx08mYp8H7tLVhkcGmUpLVPp7SQAAEABJREFUpEEAkN6u48RS4Fi1ly5wbp8d5kSH/ZPZwcQZqFkKIs7c0JylQeJWbDvTE449AblZvs8W4xV9L80VnUXOzfUZ6u4/Cgh0I9k7lDX5qWrFjBScp6XFPzIZk9HCNThAONJ3CrOo2yD9mS0jQ/cynK1J06Rj00AQLQDZB1hep22JgjDQrDrYNGTBC5FJNYu0g4bKgubvzVJwdIFoyr5y58fXx0avfK6spwfH8eGhx5imnJ3hjE1wlDOAJ9+6IhEqbduOS3DH3ithmIi01SsumUuaGCUKAsqgHQKkXUFImgEbYZp7Zk6HCramz9CY4xtn1FU6FhCUNgHB/XWrHsVynPmgx59jCMkbRKfpuLA01asMPtKbM0+HWzt2lvx0ShRkfGRwE9P4C1sHg3vqpp0wHdl7V7ef6uLw+HIt4w6MzL0XgfZcxqmpqQerzqii3+poIuB+OphG9g+Ph05m/nSLzjZxieo4PLEscskhAKibhvNYfnoJFFwlCpLz07ZDQDPtROgggHbjB0LSFqFCq1EtkqVbFEUvPL1hS7X5X7Cjc1RLkyCkhWlgAELQ5g2GcWycS/QC5DxFSmA4r5bN82UVhHuhSupiQqTQMqK20UOWvuuNaRr17TNcQxpE1M0seLEWjP/1rwM7mK7N0QnsIwZhD3k0r0Vt3uAflL57F1Hb/rAsMFeQJerv2mknJEP2xw04Zo7U6ND9nDhSZeOHrdkj1Nuv7cazxZ5jDwtQpwBLatLOysreeddGAO2uKHMsvqLgZz5DPX3S9tBWr1LxDb+fwSp9k+kl3Pg+ttRnlsuuYNs2HuCe5Zb54IIg85x1Gx6+dhcT1YxKgnbaSZYo6ndctPSrxLK0Gu+OCCkdV0vHl+u6gXUkSvyXb9rZVeJY4oCZNQ0lzs3gQGgykKytwhtNLwG4J5vnSwVTVkGyYKitZgFZ2qKL63YGg4Z4Rk3+stmI1PSOBAldAAqp6mvxiQKOY1EZnohGMs9mu0nvFYDB1HbQtj8IUdsJxD8526ENWwXhMYqydbJZsjaYW5+MDz7ASqLLRAtDW0NvnUW7ST4shMf0rOI79DDuIAgMSl1Ff3ZHtTGgQ1uXy+Cgrvo4khyOPaTlmPTT29M27Q+hbasgY5kzPMh50iGP1uqmnUggBPq5WTz4qO2xEFqNZq10WtpZjmzxQNZbdN3ijgSKPMM9a1cD4AmguXAKtbxpSMyJNxlszACI2sZ55ugOAMfpJQD43JZE7BGwuWwVJAuvr2Z1TumH8JVBbxYCvq0ZdyrfOrphlAC0BwJhOm06XR10FxHK1HpHMAS4N/lU7G+OQA3oKXkAAaWB7sidRepGRwD2tBBnqqH8XdYg2FavBN5ZQYi07RDOHNru3rFMaQS6+vCibWqXdoRemG40qxC0jUVAeHso0re2Ut5DkWgMwCThqeKJkTAHVy4P6KpXT2yJX/6ojj1C/ZQobkM6NiUcFUTRlKN2ZRhE0k9/F0CEG+XhZJnZpqxmtSGV7OlaPp44FMps71reV+ca7IlewjB9bHXmJWhL65VWR2UO/E3yABpU2TOsE2kb6Lva2r0ryFhmgh05ayrBXib1ax6IMelxOEWK2Ezkmuj23PDQGBAaHg9G1wUjfZ9xG71Qd/QazjyfNcFDoP9MPnHFNhPYRoKRkwUIUTsmZilL2/7IbR+63DF+hH/YtnHAsSvcsQQR4oTKUcMEBqy0tq6XawjpTpda9CLukh6MDNlmuk20t8tCJqMpJfwHvCwUiT4R7Ol/l9MpVMsia5aEeqLvZ9inuIqmn+KeFdgzuKBTSprsVxPdd3ZOSk+m8yaGCI+PDw9pew4DANqqP8tUm7e1CgKWvh3CRIyqWZwxtNUsrs83ZTUr8yciOt9FflyJRDdaOye2hSL9D4QjfTexwlzJz6tDkeh3uL3yiILAViD4/0xzX7ZGhiz4UOnWsEaocw6kUN91TQD6gWeOCSFo86TJEnPO20zNwQQD22REnUfW7YGY6ROyQ/r2MOKTRtIOGhLgKXvvfYGukSbkGs7KikECKJkyrWeUVhPgWawwF/Hzkwx/BgAeAi4v/gF9ZXw0pv0ruiRbF3BJc467tvYQAEurILm86Li5CEdqV3KfDu3xHVoFyQzBI5SdpwIzV+cWWvKamc/yb1tGYn9iH81Ueli4o33hqQzXlKYdOz7AjOuqkgxSdfMAtE+62Xao6gxUQjCX5o4/RgR4xGgnmPQimXvV6cQPK+OdcNeA4zZXgq9VEAEi0o+HAJG+zsfEuOjT9q6gwTRnJtWQRtYUKGtSEqieSnI/tk+d0IwN83wimqQ5kdHscAAV0OZFDs+opDVTEFD67l6TZbgsDZMiksHesneTVrOYd5DePwvSRyHAr+W7thbvWDjx0vHNrBy5tNZObVeKtD2hImskS9v+gCnU52kmZqQgmUEZBNngmlFsjOG0EykiOePYDu3nqC/c2blQ292Xg23Ix5b4515IxmOvqzVzqfjgm5555uqXah1OLenn0rpdE8ZDknc0MCDHToC+/bYp9dT6x8HgMlKQDB1Lr3GdUxPa2b1Ci6Yb6/JV3hJBU/ZmzY5NPTaSrkcYs2NV7S9O63fpaeo7eIQGtYG+egUGTQYhxtZYQUy6xMhgdi+HCQpI293LcE3bm8W8Z8ziA3fpttnPwFVyW7LvTt2Og5WQrzlu+ICLZVGUjH84hsXjcd9wBMh7GuxeYhlMocqTM1aQXW0d2nlZoJwb6qHu/qO4jz9mgbo9z4DDs31H526fDUXWHukA09BegZ0kiV9THjEQaNpltZm0nQwMsIB01Sse06OfSt7J4DCCvdHPU0unLaP2h4RhrCCZgTBA5905MtNO+g4WwnkrO42Huvv+nSP3DCDJ9Os+IDgo7+/0RCIenVa/Y9xHw919H3aCbUQ/RGWSeYcUqJVo0XGo1PEZy+88aLY/AF4BmguBmq4ECff0f4TT9M8A6ncEeKEmilnvbJ7pExzG3RTq6btWprNnPbP33PSSFdkv2/v9bjbRMFaQXHB6zbNwugdBBGGp9r8A4icYX7s9DsPYmVWEeD0LZiPbqq/Oswu0UvcAkb6KhbR1LL7+SdmzVzb+ztjRobuzDVJLO3WlrYkUhDP1aZx+T3J37X+ybGf9SPnbjdkbCM9NIzwejPT9vzwi93JpJycynj4P5wny05WCoEJt3zETPEnO6AtGovfkBFHNPxz/VeHnoUj0K7nRUo6CjWkEZwRt3JHUi/asOvllsQjRpJTKAs/RfcWKixZxmt0MhN9lFnrZVsssQ8D/lrwmeY7pazuJFFj6pkIBd5yfC740r/J3Y5DtbG0NAZw8lVYjCFDLLs4PjFuLf7sssmZfW0YawQOVtg1iIdiWEizDF/TRaGwFCUf6Vk4t6niA43Em25oYltPrJM8xcV3tYltu32gGNTOuFERIEuDd8pxry0I5LACBB7PLT+eam/Lhcwmq23QZAmTZT0sncChdpsPUllLTkHV+Cfb0H8P5RXaAPLDOQZcPjuAX5T3sXZW9V3kfRNBWs8pjVt+VAMJE6u5lma0lq0+/cor6BvQU2Fej+CegLUGoQdsgyyL9r+VOFjnKTN8Oq1zQZhQQXVWvhKh7BbH07RAhXEe7SOqVoZX9lXQC1IZdgyoWKuVQxZrSKgggaKtxtYmcPdVw97oDFNAPGKKDbcOYtkB6+nBOU6ZcK0gysf4JJv4M20qNVB8e4G7Km4ngSrbXQ3aE80lwfdHLYIoMV/S5Jl6CYO5A2ioWWRO2VaxdVrvISBMcNVwVi0s1mZLuha+NSPgTAuBeLryCI34LW2m/2MqI/Y0Ml8aJzU9uiBsBFwC5VhDB5WqWa00UvJz9roX02lQ8toTtkcn40DvHE7GL2X40FR98E7utZMt6Q2cDEPeV57D0jzcEI9EP6MHqB8EZRZtJUC20PdGL0m36EgSUNoz6xRgg1NO3jse7DjcPkx4ForMlzdkekEwMnjwej32M88Ia/j6L7ZFs91CEx7LieFhrk+WEcT3lWU8KYlnkuh0iGsyKdQJH9owtmtOAJEqpxNDXU/GhVSzsS+TbxHIY603g6gej72EaHx6wLSVefGZgXMsr1X60XstDDmDJvmuXAeGa3KfJYy2n8aGS1jpgOaCTFecU7vV7CwC6P4zIYIgCylzeFIQ6S46qKkO70Ol3ExMdRyRHYtJoK3TXvqdGhtaTBfoBoCyllzfSiDsLV1fFMqk6OM/UJdKFkZVMHe7tbQFZDbm7UVCo3pCKxz5nBFsAtGUk9mNSk0e6rF0AQbvrvCfBchrKw53dOjog1QI58FOLyH/1X3fu7Dje6G9oQ02WkSKRTH+3bECmnQnxoumPOX4hAF31x6AKBbYlTDZ6ShdGFqzm9wFFQJ8wCCZNaJ2cGlnvuss1T3t8+IpnJic6X895S7dsIoPCcPc6ldQZIJubJwXJ0CLUTjBjuE2B7RNvzp1lwZ/eTTIxdDsQfMaAwkrpYjSAcw3CpdPbeER4TTgSHTCxHMDebG0NJ9yCIjoldBnZUc6ItI+ORt4/w3t3f02WMy+P7JJSXl+aEX5yfGSDp/YAy2LayA+XNVJGzrU/Gf5Ree5N86Qgma1qkLQNMSL81ObNVzmOvE/H2OAllYgNcremDDw5Qiug/wr1RM8rnszmiOTgKdMYQpG+PxHibQy2gQV+qYllWMcMwzTCbB1pMY0gW1vD+FoaDJMJg4lsIKTbg5H+h5d291fleDaRscjaArya6WsM3pFKDH5RA2Ts/XwitpnjdpkBwpErVly0yACuBMSTgqR3TGg3aOCQ/jSeGNTuYsJw7gypSwwQDuTS5po0wrOhSN/Pgt19H1wWWeO1KoJT6cBNANjcB2LCzIVArwwgafcGmMGY/SaNcZEpl0g/FxmLrBliJVtHg4r6HAE8eI4vS4rCaYcdJnfrOMYDefCkIBgA7Twrro9+wQtDOpxUfL10EOgOB82TCQDgiYh4g4LA1mAk+oNQd/S9bv4moZ4+bvvQami965hgd1S7+i4fbak1iOxEhm1talxkyn4y9ynAT71BeNzouAI9pdkQD14/ye1T7Y6TCsHkpz6bNn95UhD+Y2i1EdtMjpNmDjwYRPi+BzSuncFb+fb1qUUdyXCk76ZQT7/2kBayUBtXL7w0Ag4C6vaO4nGN/tO5pLhFNrgT2SGwDL0wT/A9qNFlBdI/1pHmqpindPSmIAB7OTFEBPHUxsFnnWAq8bMI3QwglgtqAQGeBUS3cuJv4z/jV5f1ROXI4VJYhIafTl7KdDmXMm5IZds3IotQpO9/RTYiI8Z8B9uKDP/UjHqcvAQivVqM9zRbW8OKrVtIVRbXq4LsVpZazpGLs5qeS6HAGs4FVY3H7vxnPJt7RH7EGWKc7ZfCveuOqwbhJqDB+SbLZahn3QnBSPQ/OP7jIgsA/GcA2J1tlYzlYQqRq6Adq90E4Jhn7ULypCAs1YV2BMWdAKvWcyX06mhl5um/klnsryQAAA/lSURBVGX9MtQTfZa7R7/Afz6DwzLryGEVg+J07Apll0P/Fci6k78/yuRFBvyosuEWepUpziJHADtnOZR+OG+KXQqfcfGkIMyMo4KwsDsy1Gt0s0g5h1+NcAn24nhewO2t6SXE1SDbSDQ4fidDdjn0y2vNlzWFNc0T/CNr18ShU+Nf1tuTgjAl503kFGq7/JiGZ6OAGmolIQGeifkNF3JPIniXQQS/V4xXrW/hySD8uoEoBT01DYxglRN9lodznrVB9qogf7Ghl3Xmv+8eew+UbQBmASq905EGFGraDioMX6XpvuTw+ruSBRYU/qYQxub92UKcar4LTzZhVt8ZQCtri0jbY+aVMRnIZVxNe4mMdlJkOrOMJwXhv6OzgnAQ7Z2T7+VHTQwhvlZHeHKiY5WyQEb7hxjWsYeD/SszXH8oJkA0xVX6Ytc6fpfhqcqhi0yHRMYTHaQ9qoGrQDWrqk6llUFpXUcFQQXaE3548OaDVU6QDLnlkb638Itu9eCwzNUZG409nIrHomz3IwtfzTn2akD4K+NX16g2KiaIWOpWDFPT7zI8VRwey05kKLIUmbKNioy3/WUoxbSfYutk9gt2RWulJGc7BZzxI9Dm2Qxc0c1TCTLRTtqBOs4xh3JP0PuLwqv40wLUz71BKpkMNz46+NtkPHZhaiT2CkUoxxN8mZmxXe7Kfr7JSkBk9GWRmchOZCiyzHrN3Dm9S2Q+45t94x/rZ7Jv1bsHu6MfYmr6TSECnXcwnGvjSUFyf4zvaEOz4KrFKwfCWjhDAO6jl8U4R+jAEQOOvI0lBu/hv985bIMkW+UTfI1p/p2tb7ISeJF7774mshEZsT1HZJb1Kn/nksVk3t0xoZ5+kynx5QMpcl3RM7AnIlxZ5Fzmk74x7rAwrQzCtJMnBRFsFoicnSev9hYh1DE5eYebuU92xMI90ePZb5CtzowkubGsA8r7jyc23JFKxP5lmdoWBqTTuWooJ6juyPsbPcvU9+e6DUKd/L82Yn4aaDuXAjeCwtNSCzqWi0xENtO+mhdWIlnfIe0SZ0iiq0Ld/Uc5A8342r3ttdfAbpM0KaWC44zpLH7gf7JP93fPCsJF7Q9ZSRLaIJEOn1rUcVslJUmwt+/V3DEgu/IFdOEh4KU6mHL+ctRcamToe8nE0Lvbtk/In+k9DKetSjIMYIAseRZaHhcrcSv0r/W7mphIG4bxfUR4z8KJl5aPx2PvSQ0P3gaPDUwY4haCESCYyL4dkX64vCt6WCGym/dlkTVLdi2c+BECvdIA78lUPDPB1QC0FMSzgggpC61z5Glg39AxNbExHOmXTGcAPgMSivSfgxbexy7a6eqcQn9Mxge/wbAVGVnDkhyJ3ZiKx95GmR02nMkRtWMJRDm3EqDaOZTlqTS4L0kcJa7VOIQnNRKTP/WfSoOZ7cIyDVsK7gsW7Ks7G8L+a1lPdJWCwMNAIO1Ie8CcD/+6zsu9enpUpCC5lWG3Goa8jIC+GeqJ3rVn9xpHzV/aNbA01B3tD0Wi3ONE1xnSB64iyVR48K+5kwD/KUw3h16IgP/NaTwajEQvkOn0Tlwv71nby7BfUQSPMpzR9B8uGW8ar/DU34oUhBkFUlPn81M3D4ZBcoY1P42Bhzmyj7L9t3DB8tVQT/8gC+vugJrYwsW17FDiagoEEnwq1N33yz1719V21DYXlelHA7ZBoAxP0/zOvODMa2Vv4e51B4T458elwwUuKe3HTHzB2jkxFor0/zTcHf3srDzRHb0mFOn7k0VKJju62dZpO0xMueWlhPWKFUSmGnPDVgZq3Na5VzE357NAL81bIIqysF7P7t4N4nFpy3qME2t9b+95nubfeA+8cTBpYZlqXyl7LO5SRzcuXV0DC0L8YyO0HgH++bnBLYJdAEBvJIRL8vlBnvyj5CoSul3NmeYeuDOSm67gGkhRKDOfRm8VK4iEwg3b24noI/LeILaDE6t/i7X4LzKNu0F4ajk2gl3RN21TExvlx8aRq+lkRKZvbBDwfW564JwIV0VBJIDxxNBXOFOuk/cGsl1A1p2hSPTm5V2fflkD8dXUrIT3uXgvlukt3JH8E47IPmwbxnCp88lkfPBb1WKoagoiDHHf+SBrr8zB2irfDWTPtFT7xmCk/5MAA1WNcwPFsQ6snBVgGV5I7W2yP3PFqwyrzPBWruq/nbuq/72adKueWVh7vwFtKO2LO6vJaBVoLeZ+86vDkYk/hHujr6oCvXlFIsSDe6HI/o+wDD/PEdfMnGWIuhr6eYDgQKnqVzvYqiuIMCjr0VPx2IlAJJPINopblSz/udRJgHgG09NOsWaYEsNF8KFkwYNcRfhysHdgjxIALw5lJgbO9WRF3MWx1MdF27EiXe7Bnv7ruQtdDmA9WE+yLMTfJM1IpvUAcBqWhfHiKHuVvTsVHzrp+URssxcCOhxvCqKjmvNPZTagjh1AgGcC4IPg8SKAhxHxo6l47EAZFU2NDH63c2dHLwBuAO/Xx5Q1McLdwu/zTiKHaU1h7m36MddTTarRzRvs7vsgd7mPcNXlw9MRc/2CGyStJM2k4SxpCAgyH0u7ZMIuKBb2r7kkO5VpHTI+MvhtO7hquNdUQfIMjscHv5OKDx5hQXo/InwnlyzXcCTvZf+yu5ezXwIAf4CAnyUVWMX1ysOTI4PXQ8El25kyzT5Iq4NZ4J6OhWPFCwPi17g0+UU40ud5FWQjTjUpx1OB+PKvZUuQUFffgSEe0+Cf0g0M6G3hG8LdkjaSRpJWTGfapEZi13LmPggVrOaxq8s5HeRYg9FpgMIXghQC3Mv2ask7koeS8djrkvEhOaCnELIm73VRkDznW+Kfe1p2W+SS5fxkPCZnhIRIdSwBi46WhTfcdtmbBYfsF0nFB09NxgcvHR++3HGLn9RT6x9ngR/HVYD3sxCT+bBcPo8nwCc4U8jgpEtU7r2nMmMO5dxcU/aOYDjVhEU2E0ZmTCMS3QAKH+ceyWNnfMzfmGBS0kLSRNLGCTM5HHsomYh9hn+Ap6TisW62KHlAKetVkickb6QSsXCS8wrbCyXvSB5yolltv7oqSDnmx4cHXkyNDt0/JoubKthLKzUy9FVLdfRwGP/Btuyfkd2dDYFMb0m4HjtpwCqW4Wze6fQP5sc0ANY4C8nWV2T+ZUkDSQtbKI2HtF/Hhjf8QfKE5A0NeM29pwVU85DqEIAIlP9C/8pF95H8J/O6UVlLjJ3gS5NkIHLKjWncyjKrZEzjIcaXk6DOkTQwCLdpQBpOQaohuaQU3fHYK7macC7TMzmkhsFKTGbsBBH0U1/K9GItmpgYK6FY7EBU8VSIYpLT32V4mvabeTmexzRkEz7tFqwzKLPeWLYkC89Wi8xn+bTIR0sqSD5tuP56HfeP78+/0hvzbi6fi1nJDnKJkwGX6ePaUkwFtEc5ZIjV7nYgk/a0x5jIVGSbig/J0mUm05qmpRVEkkz6x7kR+B6VXYc+Im5Vt2XaIBJGGvDj/JS6OT+KDMFtqQpOWSqiVvJp2AYpwTNweEJkKTIV2RrANzVIyytIPnXGZB36go6DuYu5n92cz/1jgGqYLfHBX3MV7USmNXsQi+DaZYFtMgOavZrG7OD+ur7Uvh2rRJZNw3WFjM4bBcnI6bGBiVRiKJYmPIirCNL3nnGu+OZQ30+OxH6ZisdepoDeytW1c6UfP5WIfUKW+FYcrgMB3GU0ku5AocAL4Xbm+6BUfGgD3DUwVeDT8q/zSUGmE3NrYvCp8XjsFO7vP40dn2ZbmbGpYhUSHYsP/YgV47p69eNXqYq1idXszamR2NvrxXehzBrhfV4qSF7wqeHB2xZbHQfw9+fYTrL1TVYCsmnDEMtm5XiFS1az5Jr3Pq8VRJJtdHRgZyoeW4ukDuHv+9jOa8NVz3tYFoeyTKIim3ktDI78vFcQlkHGJBPrn+BM8RoE/CdujD6fcTS9ObRB8iSWR9btH+rq+8fwARcvzrvV8umhDbJZ4s5Vz2NFFrXkrZlo+wpSlFrJ+OC3SHXuz85fYlu+i5Y9ZhmHNki4J3p8KBJ9zgJrI7d5fkuTbS+GevqurfV6eRdtEAuQvkiqY6XEfVa8/A/wFaRMJpDpEql47OOI1lHsrR87UW1cM2HIIrO8K3oYEfyCnWefj0d47ri1uKor3ziMWcawBNmoLFidGhk6T+I8i4D/kZGAryAZMZS/JUc2PMg5X7/Xlk0JYiFdXZ4yAAJ8NNjbdzDU6rLhqSi4O8dGYw8XufmfBRLwFaRAGNV83XvvCxYCouM8LpUGOcqhmsFO06rXtj/TAbboi68gNUrY7R0dy5m0o3wJ0WiHQKbjmzmSgGMCzhFPfrC+BBpGAr6CNExS2DDiO8+pBHwFmVPx+4E3ugR8BWn0FPL5m1MJ+Aoyp+L3A290CfgK0ugp5PM3pxLwFWROxT+3gfuh6yXgK4heRj7EPJaAryDzOPH9qOsl4CuIjYxCXX0Hyt60CLDaBmTGuT3wqcJjw+Q9AMrk+K+jBLYWFqesC2cYtH1bLXGsZNtVW8ot4qFaJB5VjUa4u+8iUPg4It7AhI9g62gI8EICuHS2xU86ImU9j5yNA5dW7xtNFORIiSNlt109L8uSfy+UgK8ghdLg92BX9E2EeCW/zi9DcE2wp/+YKkW6Zcj4ClKUlKjg8iKnefOJZM3buNslsq8gpZI5stRpvrjgCfMlpqbx9BWkVFKNdr5iKYe1c3mhdqSbk7KvIEXphkA/K3KaT5/V20yvRaTmK0hRQrYp+Dgg1G7X9aLwGuUTARJTU5bsht8oLNnwUV9nX0GK5P3c8NDYRKDjlVyS3Mxez7JtdbMJEL8+ZXW86oWnN2xp9ci6jZ+vIGUktm3jQDIZH3pnKh7LHAnHTyy2QKg9ri1A6cOK8ar9rSw4vEwUZjnJOYAO4e6bGhk8e+vowHxue82SV+GHryCF0vDffQkUScBXkCKB+J++BAol4CtIoTT89/ktgTKx9xWkjFB8J18CeQn4CpKXhP/0JVBGAr6ClBGK7+RLIC8BX0HykvCfvgTKSMBXkDJC8Z18CeQlUC0FydPzn74EWkoCvoK0VHL6kam2BHwFqbZEfXotJQFfQVoqOf3IVFsCvoJUW6I+vZaSQBMoSEvJ249Mk0nAV5AmSzCf3fpKwFcQj/JGBEuHmsbADaGe6F21tJbK7N3lzAoiOQP4vnYS8BXETjIadyIwkd0RQHAs1NIC6Xd+JEJNdHxvGwmYJLINqu/sS6D1JTC/FaT109ePYYUS8BXEowC5Wp/2iFp3NAuhaXitu3A0AfoKohGQnTchJez8Gs2dm+gjjcZTs/DjK4jHlJqaCtzjEbXuaGnAX9U90BYJ0FcQjwn5wlPrE0DY8EcGEMGHtyYGn/IYzXmP5itIBVkglRj8IgKdCoAPAsBLbKfNHL/s4PDvB1AnjSdicsYJf/rGiwT+DwAA//9gJx/FAAAABklEQVQDAN/MeLqcsgTpAAAAAElFTkSuQmCC;rotation=-180;" parent="1" vertex="1">
          <mxGeometry x="730.53" y="1004.5" width="31" height="31" as="geometry" />
        </mxCell>
        <mxCell id="Uc6875Y9tMyQnbQ6dpTS-38" value="" style="shape=image;verticalLabelPosition=bottom;labelBackgroundColor=default;verticalAlign=top;aspect=fixed;imageAspect=0;image=data:image/png,iVBORw0KGgoAAAANSUhEUgAAAMgAAADICAYAAACtWK6eAAAQAElEQVR4Aex9C5xcRZX3ObdnJomQkPTtEOSRzHQPgY0KKA93FSGEFVFAUBRWXXnspyCrgmJIpruj6WC6OwmwyPIZBVEQZBFYWWDzyQ8N8lgFRHAR5CXT3QNBENI9AQIhmZm+5zvVM93Tj6qe26/p293Vv6q+VadOVZ361z23nreuAfrnKAQW+EJ7uvsGjjN9/jM9vsBFwpp9/i+avlXLFnCYo4StkzCeA1bMNn3BT5newEbTF3iIry+yJbMvkOTr701f8Hq3N3DBPJ//w/vu+81ZdcrWVjJaQWzB1Fgmty/4IVaCK/hmeGqMRl5FNO4GwuuIYIOwgHg9kHWPCDO9wVc8ff6fe7yBExorVeNTd/cG/970+n9Go11vAtFtnON5QPD3fN2PLQCCCQBHcNgXEeB7BuFv3+mZtcP0Bq6d5/32+zis4UYrSMMhVmdgeoP/anoDzyDR7wDxfOZcwnYKQ3sR4ukEsInjvszK8uUpIjgumOU+lu0jaNBDAPgFqPx3lgHpJ9zewAPufv8/VB7dfgytIPaxqhvnPF/gvXyD/AGAvs+JHsi2WvNuVparuSvyoMfrX1xtItMZz/QG13N+m9kezrYmgwAfQQsfNL3+gZoSKhNZK0gZcBoRZPYHTzYInuS0D2NbH4PwDwT4GLcmn6xPgvVPZW7vQK/pDYiHwor6p45RTnvzXv3++fVOu4EKUm9RWz89d1/gNLDo9gaVZHduTe7w9AW+1aD0q07W7PUf6DKMBzmB+j0UOLEic+yohQ/MXxLavYhek1crSE3w2Y8snu6IcLPNGNsJ4H94cPrvfNNfCoQ/JcBfctytbMsaQrjUzTM+ZZmmMXD24pAHDPw1Z/lutnbMS+NlxXVAcD13o56wE2mC50Br58gNE+66XLSC1AXG8omI6UlCnEo5tiHgeRakF6XikTnD8chRqUT0guFY+KJUInzWcDx8wmyrZyEAfhUAhqDMD3nGx/T5r+SZrlCzbU965L9Z1H3ZljNbwMBTyOjZg8u+nyhrKh72pxKRM5PxyMFMQyD8IP/dWi6RibBTeEwWnHDXfNEKUjOE5RMQTb5h4R3MNZOt3CDeMNJD+yfj4R9ui69/Uc7EWjEU2pmKhzemZvYcAEj/V8WXoRN+jQBWN9vC+LRtRiTF322sGO9NDYbvGB4MvanggVQi/EgyHj3NQjqSAP+k4svQEVbP5TFPxl3jn1aQGgGcKjo3+esAQczny1jfRIRlqVj4jO3PRlMyBint6dBIKhb9Oq+RnC4Nbw3iTlbys1LxyKnlFKO4KNti0d9xC3MI06NsVaa7y8ANqsBK6K2pIJWUsIm85uLgPpz9eWxlJo0WfTIZi9wrC7RDG05EbkGkr9jhdRgPNwL4eVbyn1YrFytWAAF/rIrPGXzWzQuwqnC7dK0gdpGqgg/HSMwoyTFGvDA5FL2/imQLoiRj0asI4OcFRKd7kAZSsfB/1SpmMh7+ErfOd6rSMcj6hirMLl1eeXZjaz4lAu7+0By+caWr3Ex/nG+Qf1dF5lkoHlz7bzG9/i08v58Qe5E8vuA5Kn7XzB6RzzZVuMPov+eWY8rujxhDzO1beXBmFqxMAcZGrbNUwQT4cVWYXbpWELtIVcqXHjmeo0jn5F1EYlsJB5ca0xv8M2YG1/hZABSzP71A9EUiuorDHjV9/lOg6Lf16dBbAPgjUP9i/KS9f9osgHI62rBA2SXs7//6DC7jANsneN0k4ULX4z1jI1vdvuDVKkV548V123iGUFX23d29gY9BDT+tIDWAVy4q3+RHysPpqa2J6P/IwvjGeBSA3iMLG6fRoUB4rdn77Q+O+yf/01b6B5O+EtemVCyydLos555gKzG0eetQ5HFJALj7/Uu2WbN5MZF48E3vy+dBoi93j41uFjz59JwbjSty7iIHGnByEakir1aQIrjq50WFguB9sjxYOdazchw6ESaewBuJ8DSmnUoAaybo4jIXjHRJ9+z1oXVibeTPgqHEIpQoVAlPvQiHntPNSb2fbYlBxF+VEJkguqNoGbew8wNssyaWdYgrr4EcLHhkSjI8+N2nmOcetjJTy1430Aoig7QeNKT9ZckgYMlNLPrbrAiTe5QsOikVj3x1OBG+NRWP3saLhqEiJTnC4xvIKlMuG76Jnsl58h1E3nxvI92ebWYfpy+UhC+FxrJA2nqgNXYElz/bcg6TBcen4pH+tGWJtK6D3I/egxbI95sRKGYDac9c9CocWkGqAG3qKCGBq3T8QWj9rTh+t9GVv839v1ND0d8X8xDBbfk0i4yT8v3jbkOuIIBzxsMb/29ZhluVCxnwijSMrLwWju4aHorcLfhEq8iKcja7/8p23CDKt7cjKiYpUCvIOHLO+d933zdmqKTBNJRUJCtN9ukJhPAXWdzdRt95XkbPp3E68Xx/nntmnruhTjRoN1UGM5BelYbldQF5beiaYh5uPSdpBNJt/YybaqF1fnF6lfjFk64Sfs1rA4GXXrr8HWaz2JYaA8XiYSGd8KUsgStkj6w7/7rTNWtuvl/qJtxLSgeQy6JgroVMFr6tij86pthRQDQ7G8dC4xNZd/aKAGJGMOvtzToKr+k3Cv0530jOVYWD66OKWDqKDQTwtSKmjJeAFmYceX9opJ/Nei0C6ZbwdBcVjiMMEoPabLTMFRH6M47SP9XTtZSzRgoSqm5UQAN9suQJMNdqIsJF+QNxjzd4OcfJ64LBz9lfaixDTImX0Ang6RJiBQStIBWAVRmrpbgpsUQBunfMfA6AMpsU+Wl5iNsbCLl7g+Ld7EyW4oYxyLgq4+E/HozfOjwYLal4skiuIAgFM0KcRMPMrPTbYjZN2mIRQqGST0hB6CrYeIkWPmV6AyQsP1AKVsMtoFsnohVcWLHyW5m8MFKMy/JYyji1gpQBp5YgAhRvDcqS+Ggx8eWXQzuAjFVZOivJau7Li9M9njHFwqGF+esjWziM1wqy3OPXzEIaYv6TdjyA/3kd4WG+TIuZ6F7+UZYZEUgX7bbFv/skK8I3ZXHyaaxgl22LR8V7MfnkrLsE1/EA45Hxa3X/WkGqw81OLPGSkIxvjulbtaw4IJUI30CF6x2ChefwSQzgZwkP2x2A1llbB9f9L7sLzIyxka8xIcvHzklDgCeavsB902U550VsSwwr/gl79q+SdrOG49HvIeA/A6BY04Ci3y5uYdcNxyLLi+gZr6fXfzQ7pDN1xuhoSVeUeW0brSC2oaqM0QWGdLU8kwqlpS/0DMcjIYPoKObhLhf/5wy9JLpVfJN8MRVb95scecKxYMHy3QhAuX2F2fqB4GiYLgugnDmyrLRQZBap1CTj4RtHR7qPIl4g5fJciATLWWk+jwZ8KBWP+ktjjFPIMC4bd5X835vcsuHlEmoFBKMCXs1aAQJpSH9OzY7L3Io9QmIbSmpmz0FikYwM+pCB1v58c+wnXhbia8FaSDb9sd16fsjueWwdbwjwK+VOYHnzpdCwWCDlh8XlyUTksmQ8fFNyMCLtsonCur3+7/CDo2TRVIQR0Y3iWovVClILeoq487wrF/KTb40iOEPmp+INE++LZPwFf0+HRsQiGQ/EH9oaWzdYEFbk4QH9vzCJuyb83xpmJivJTb29oZrXZub3Bg4pg/OWd43u/I9aIdEKUiuCkvgGuP5NQi4mzYcxunNuX3BRcYBdv8cX+CcE+LFdfgfxfeAtY0TaGtqVkct+DBmgGudxMvSNiQkDdldvtIJUj5005sQA/FRpYCnxAy6kIdPnz81glbLIKWafP0AEN8lDnU8lgI+b3sCTZq//wEqlnSj7bzgNjyLuPal4tCYFzKarFSSLRL2uZInTEitLjfC7fLP8he2x5SLO7Q3NNX3B802v/8+AGC7Hy2Hf59ZlTbMty/ELtirzXjCQp7ID17r7Bo5TMQn6HgsH5rn7AqeZ3uDdU5T9VR6/fUnEqYfVClIPFCfScHsDYi7/wAlvpRex+3ez6Q2Iw5lfMr3+J9i92e0LXmL6Anew+3mXMbINiK4AQDH1C8of0spUPPK1JM+K1WxrTIPl+AwBqtYuskU4C9G42xw/zX2jhxdK8y2X/c6uLmOYFwNv5gG5WpEIUpA2jhHjt2zCtV61gtSK4ET8+b0X7cVP64snvCUXBBLjknJP02wcsZaxDwC+DwCO5UW+5Tw9+0l297Od0rAMl6di0Q1TMk4jwxyr+1SW63dTZolgMs95BLA63zJNsnOZqYXmbXTBcakX1ta0cl6YJIBWkGJEqvRb2LOOo0q3uAPg33DmjNUzdvacAQB16RtzOqUG8QJuMS4sDWguZWgotHPmyDsf5THT1Q2S5I88HX5IuengavPVClItcnnx3GLfFNKZeaRCJ1krxHvjYksJdzlOBYRyi3qFce35XkC0DkvFwiVvGtqL3nguMaM0nIicy90ksT60vY45RhnTQ7dOMR1ebX5aQapFLi8eGqQemBM8lEpEC86LTcUiVwJYR3ASW9jWan5BRs9Bydi6x2pNaDriJ2ORn5MxtgQBkrXmRwSXsHIEak2nXHytIOXQsRHm8fnPZbb8d6nZmzPkgrT04LhUfN0f5hnb9weiM/hmmbp/nksy4xgExIiL0ofwDfKZSk4mzMRu8t/w4IaXeIwxXKsYBsKOWtOYKr5WkKkQKhMupl2BcK2KhW+Cq19LrFeeIzs4eOWuFLcuPG44EgCVA2tWoLsIaDUP9E8ixIWsFPunYuHga2XSBuf/GB6pkEOAMH5EEcAvuMxickPKOB1ErSA1oOwyRsJcy6rFqu3pMUu5wS4/2/EPv5C0pQGgzaxAnxiORy9OxqObhmPhenTL8rNvlpv1vjRrfhBcy13Q8SOK4pHPJBfOWFnKNX0UrSBVYr1n38qDOaripuYQhKA41IxdU5rRNF7KTLnXTtmdNWmX4VIetJZl0tfGIaAVpEps0+gSU5bSpyAgPJOKPb/RTtJmX/AI5hfTvyXs3L244rXBtdP2NmCJAJqg10GquQd4lffzHO8ItlJjEZ4DcGtaGlhIREIQilZIHfdthe50aNyp/ytEoG7sugWpEMq99w69i8cdokskjclP/Vu3xcO/lQYWEXkG7BzmF121ohAeeQCtTD63oZ7rBSV5aMLUCGgFmRqjAo5dM0dXM0H1vb1dkMYLOHxKIzbfEWFUxkiAfxqOR6+VhWna9CKgFaQCvMffpyaxIVEaixDCyRci8tMDi2J0dRliN670LUAk4C5aUQTtbQoCWkEqgD1tpcWrrdJzZzmZF924XbmWweE5MzEDppqdui6VCNd0EkcuI+2oGQGtIDYhFJ9xBsB/BNUP6QKx8KcKzqeXmQHb3m3Qinxe7W4uAqUK0lx5HJl7f//XZxDilWrhaHMqFr1dHT4ZYvYFxPvj0hkw7lqt+dtgVHz6YDKCdjUVAa0gNuDfRrtfxGwlR4YyTRjbi3liBozXPFRbJ2JJd9Kxu3FFQTvRagWZotY9iwLvBkLlO+M8TXuFj9g5bwAAEABJREFU3cW8nbNGxUknijOjjK/AY1ePTiGODp5mBLSCTAE4uUA81VWfM7C9mCdmwJBIPgWMcGcqvnbzFKLo4CYgoBWkDOjzvMEjOfgzbOUGYYXdxbwyM2C7LEp/XZ6BpjYbgWlVkGYXtjj/ed6Ve3i8gRPMvqA4VeRXpjiGxhf4K18zJ4sbQOrjQwEeScUi1xWnKfObPv8poJoBI7xkW3x95mR36KwfSYuLPFWRH3BfaCzfO93ujlQQT9+qA1gJbjTA9TrX0iZAWsXAi9PB3wsEe7N7SkMEIs6UfJkTBAmvUDC+Mmt0R0QRpskOQKCjFMSz34q9Pb7AzYSW+GCN2HBYdRUgws0eb1C12JdL901jRLzPIJ0B4zQuFO9q55i1A4BIvkO6Sdh0jIJwN+dM6u56mghOqxPW8wjoB25v8HGP5IuzIg/uwi3k2vYLd7Fl+m+TsYj8a0nFzO3pZwhsFGxpqMsGV8NYKlaQuX3BRZ6+4Elur/9sfhpf5Ck65MuJfrc3sAkIxXhB+v2/WtDlad6DiYxH3X3+/1OcDnfhxOfDpDNgBqk/A1CcTpv6uXcrKVkrjkHm7Btyu73BC01f4CFxliwh3YmAP+Gn8QYu5WoH2LIyIMAJkqqoKwkRr2GMcp8Lc/cFxJjm04pMNrb4++SKYrUfecoWhCv9wu6ekSF+Ul4GBLnv5rUfFPAOd4B/A4jiiJ71fI1wea/nct7L1pZhjC53+wLfFsyIoNqa8vpID31H8GjrfASUCrJn38qD+SkYQ6DLuBiy96WZ3PqGy3crGHjKbKvHnYpHj03Fwmek4pEBvgZTiciZ7F5mzOyZDQhn0tRnzPKEGFxsegNiN+4BcnQosP3ZqOIDn/IYmto8BKQKwq3GqWl0PcxPQelXSZsnbv1y5rLd0uWyfMl49LTUYPiOoaHQTlXq4lREXvO4fjgePgHJEIdTi1kwFbugHy7+Si09mYpHf1BK15QcAuTwWSxuNb7ET9X/ZIFnsm1Pg3B2MhY5/dXn18UrLWAysfY57B4Tu3Ft7d7NT99CUJ+Cks/Yye7iQXqTsShoQTz9q5byk/VHdmXiwW+Cux73O8USwANTyL7TQjqSW4PrpuDLCy51iu0lqXjkUwAoDqwGOz8kunlbLFrpCYp2ktY8DUQgpyDzvav2J8v6ryny2sFKsYYIjrMgPTcZj3j5Zhs/5CsWafqVWz7VinWmWBz+2XrepKl42M8PlGsyiZf/e4e6jW+VZ9GhTkQgpyBpsMS37uaqhGTFuAu6cHEyHgkNJyK/3hZf/4aKt3l0FC8jKbLHDcl4dJMisGoyd9W+zJH/wLaMoYtTfwn/tQyDDnIoAhkF8fT6j2YF+IhKRu4enJOMRz7h5EpesGD5biw/d3v4v9S8MmNnt3gXozRkguLuD80x+wJBs89/b9a6vYGb3N7gqeIEkgk26QUB/1UaMEFMxaO2u2ITUTr3Qg4cpFsGKvcUEeKPkomo7XFJs2p2bPcZyk9z8dhklfg2h0o20+s/D2nkYR5LrQXEpVmLAP/E3bL/7OoyHvb0DixVxU/Gw48CoPKYHne/fwnony0EuMtq2WKcJiYDloR6+EY4WZHfi91v7fqmIsxZZItOUQi00zWz5xZFGHi8q04EwI1A8Heg/i0mw7jL7A+qcOKYaeX0rUGGeK+EeYpMZ3v5tisFgAgyvZpcSLP3Ynne2XU8CyO+i8eXAkPcenzu1VcvfbuA6lSPAYcrRNsk1jFkYeJ1WgJL7JeaDEa4mwgu4RW/T7HS5K+GzwSL/OKBMsk86UrF14lxyOAkZdJFFn140qddrYSAwUqg2j7y3HAs/GDLFIZgH6mshPdL6YLoyhyxk/s4JgL+M8/KHc+TECtSsejtqUTkfCLM3/37QffOkYCIKrNIcJOMDghaQaTAOJ8omrP9ZGIi4ZCM7kRa5rQQgDky2YjoeRld0Lg1z5+Y2MhjiRsFPd8OJ8K3AnDLkSUilnmhCkUrkuXMv0oxzmfQbmciYADRvjLRCKllFGRXzy7pC0miXDzAlnZ7Zi/+lodv/EMFj7AIxl2g+BEZk58gIFIqCIL1uiIJTW5RBAxu/ufLZEeAV2V0J9KMLpKNoTKijsHIroyj6K9rdEbBjd5lpH9fxJLzIlrpnAfozUl3kYtQdRp7TxFnw70tkAFJZUQspN/X5HfSEVD61GMp3yMtgAOJluF6TSUWzyAtkIVtS0SeYHruITBqGZ9lv9QQ4EHZAER4HBS/NIL0YcPsyo2QHNapBqUF50FfAb3Zs1ikaClY+lz3o0BgB3p4AfNllVhpMPZUhXHZ8971IHF6opSVsVidDUDLpdzJi0B7ZfmKrpxVEUV7WwIBg6XMPUXZnTNco31ze0PKrSc5Rmc4CAik71jwzX2YSkRuDe7OC+s1vYFnTW9wPa+q7+vx+hd7fMFzTG+Aochy4WPJxNo7s77iKyK+v5g24U9MXPWlxRAw+M5SzbyAyzWqfKo6rpwoHzOhhartJ5AaP9cqf2fvAQC0Aq2RLQT4HM+AXZVfTkRQfS4tw0YAH884iv+QflNM0v7WQMAY7QHxRMwbhOYJTuR39wZV6yR5jM13EoH8s2dI75/bO9CrkjAVj5zNi4ICAxVLlh5NxsJKBfHst0IM+g/MMhdejXZSkMKitbnPmHj9U1WBiAbdzF0O6RqDo7AhVO6FcrlcYsetUtxULHoyK5iMZ4S7bncAWEewIikXCEXCVk+3ckuORWMqfEXUTrXc4EqK7rRZLCEi3xyXiKvCLuQuxyOqs58UcaadPDwUfpjLIX9DkOiiBfsPlH19mFfPr3ER7EVkfQyZn1uVT6WtngWpROSUiW0kyjLN7Qsu4jjyg6kB/ujMVwOUxZmuAB4eSrIiKqQ3exZLiMg3x68BsNy7EgfwYtmjpi8YBgf/GNmfKMTrTo+5vq8Iy5FfS0ReHU6s+1UyEb2UW5XbXx8KvZ4LVDjE0aIuJF5tB+mn2YhooyJqp5NbpwXJ1FQXiC3v0hmtTLj4IwrwrM52tzdwv9sXuNTdFzhNvKbrFAtAykOgCen48rtxRQErt2/hLjHIV2yUpCeHE9EfV56qjuEUBMQ0b0YWXkv4K1l4SsZT/m93BDgKCb7Fszo3k2Xd6xQLiOIcK7X0Fv3U0+s/Ws1QWQg/KH5IiKerYiGiqtulitLhdOcVP6cgQrSJfrxssCqC28HuQQbe5/EGajq4evaBfpOV4wF+UJyrBgU3JWORvIVINacOcS4CBQoixBxORK4BA0VL0rbbI7jze6PZF7jd3e+v7E2/JaEetzf4jZ4RfAYB8ncCC+gmLcLLODpaRnkmWTvYxRBKSu/EQXqxmOIgNcOwPsT0V9i2p0E4mRcRnzK9/p/tsWhVX7lCmr5Vy9y+4CXmzhFx0qR4wUq150ok8wZaxrLklg3K7S+CSVvg55QEBSdO80rEhK2D6/6XpzmXIMF3Obw13ipkQSs3+IUulxXnyYe3zfGvSz3l9gYecHuDj5ve4Cum2GpC1j08jbuc05a+GsD0SWPRx5KJtc9NErSrlREo6WLlF0ZMcyYTke+M9NAiHnCeS0A3AeDfoD1/7+JnmlgNX8Jt/0cQ6GCeFVNtPpQiwPFOTA1FldvmpZE0cXoQqDKXsgqSTVOstidj4auH49HPp+Lhd2P32JyxtMELb9YRaBjHVGMBQd4FIVxbVXrqU0We5bY891mCbJnqfH2BZ7M+nIxH/l+d023Z5MTuC259V7K9k1vm+4otF2wh2xLDPZZ/yed185JCCdMEgev1rHzenLsv8FOPN/i5CbaaLrYUpDgHcfTmGy+sTYgV5uTg2vuSVViyQDoJwF3QZ6pKDyzVG5Dbh+ORKwwwFnOL8GRxWWr0cx3Bxlkj7/xdS72/X2Oh7URHa2Qz84nzwE7ilvnoEgugesmtN5+XW+WjOB2VWZTPm3MjnMG9nf/giZigKqJdelUKYjfxcnzIfRh5OD9D5AHlqaxZCgZxE8PW+NrnU/HoQQD4VW69noEaf5zoA1yGY1PxyFf1dwYLwfT0rTqAKYrFUw6ZLmPAF2rNqmkKohac+KGhDlWGkDJeQXqpeHhjKhZZYhCKBUOxDeTPyjSLA0S3ECHMg3oft0pH63WOYoDG/RZY0u7TeOg0/hOUnZ20I4nzFATBsiN4MQ8/zVXxpPStifAD4unP9n1k9OwBYHwUEM5HoO/xVbxIdRs32eJcrAEgOsMC/Agr1j5sV1Xz2YRiedvab1guh5Sv5k942FGQhpSViG9DWcoEVclEhKpKUdFzuQ8Pht5Mxddu5pv/ymQ8+k2+Hs+Kc2oqETmfr+tTiegN2+Jh+fsmuVS0w4EIyN9zqkDQqm7GCtJXsvITn+SBqKDLuXNUBCvnLnSo6IVc2jc9CCDcD/W2AKpu8pQPx6kK3TQFIWKYpNIpxxJS7hyRlC1P08qYk007cgikYj3LuIVeWk/Li7iq2arWbUFyiGmHRsDBCOinq4MrR4vWfASarCDNB0BLoBEoh4BWkHLo6LCOR0ArSMffAhqAcghoBSmHjg7reAS0gnT8LaABKIdA+ypIuVLrMI2ATQSapiB6Jd1mDTmMbcGC5bt5vP7L3X2BmOkNkMwiqT9GZHpH0rI4tdAI8Q4FTK4y6e4Yf39k1TJF3Ay5aQqSyV3/tRwCY7v1fJsAv4EI3pYTvlDgWUBwNJC1aa9+v/KMgaYpiN5qUlhbLeT7aAvJakfUWaMEyo+sNk1B+AlEcun1ZkU5Lo6hKj9I5BgJKxWEDHEWgTRW0xSklVsQKZKdQ8S2K6p6oys0TUHaDmRdoLZEoGkKortY7XU/EcJlaFR3ws10xWPEKz4IsWkKortYXF1tZAzAvySrON1mOuNw31B6kk65ajDKBeowjUCnI6AVxFl3gJbGYQhoBXFYhWhxnIVAQxTE4w0eZvb5rzC9/nvGl/MDJUdP8iBdOvfMiyM3ltkeIN3aIPi5fxlSQHuASgbTG7zb9AbWTXW6uyJdTc5HwLK46vIJznOzhBXLWHcFMb0DhxPQHwDxfABcBpnlfOAl/SILUPOZRWDvNxuUMtBxnMTKLpf1p9mLQx52a1MtAobBz6hqI09PPJawYhnrriAAxtnTU9y65jJ7Rnr003VNUSfWFgjUX0EQ9mlFZLjVc8ZxmQ0Dr8EJ6y6WTYAJ0Cans9jKbDdwlqDOlIbQ+KTHGwg52fK4110pevVvQYDFqFQKR/C3qtyOAI+FoBMJYLWTLQs5l21FpgEKwmvkUhHwMW5a1jTbsmgvspUYldwSVk3qGATqryDIc0YS+LiP/2gyHgk12/ITbkgiHnDDx0Ggf1MjYE3N0mIcqDzXGeqvINwZdTI8XGA2EgmpAVhIsml1Ej9FSh8wLV4oQ/11Mn1TtHjdTrv4PFL7ybRn2tgMt+xhvHWPKgv501TFbYeOZNlhaxYPC8dGknuZZlbC3bGkVCxyHRIsB4T6f8ZgmtMkwF+6DOOYwcErdyMmo2kAAATvSURBVKkqtP4KortYKqzbhp5MRC5jRanrJwyakd5wPHzCa4NrY+Uqpv4KUi43HaYRaDEEtIK0WIV1mrjNLq9WkGbXgM7f0QhoBXF09Wjhmo2AVpBm14DO39EIaAVxdPVo4ZqNgFaQZteAzr9ZCNjKVyuILZg0U6cioBWkU2tel9sWAlpBbMGkmToVAa0gnVrzuty2ENAKYgsmzdSpCFSnIJ2Kli53xyGgFaTjqlwXuBIEtIJUgpbm7TgEtIJ0XJXXt8Dm4uA+ptf/abY/M/v89zraev0Dnv7ABypBQCtIJWhp3hIEaMy6BAB/wfYLgLjU0RYwShY85vEGDwObP8cpiE25NZsDEJi/JLQ7Ap7oAFEqE4Gs5XYjaAWxi5TmK0GAduwUT+LZJQEOJxDi6XZF1ApiFynN15EIaAXpyGrXhbaLgFYQu0hpvooQIIA1dbAhTkPY/LSEX9h8mnALmrDCnbWhioSWMHeSgkiKr0mNQmA4HgnVwa7hNITNT0v4hc2nCbegCSvcGWtY1v21lk8rSK0I6vhtjYBWkLauXl24WhHQClIrgjp+WyOgFaStq1cXrlYEtILUimAmvv5rVwS0grRrzepy1QUBrSB1gVEn0q4IaAVp15rV5aoLAlpB6gKjTqRdEdAK4vSa1fI1FQGtIE2FX2fudAS0gji9hrR8TUVAK0hT4deZOx0BrSBOryEtX1MR0ArSVPibm7md3Of7Bvo9vQNLZbZcfBn/dNOqlc/tC+6XjasVJIuEvhYg4PYGVnu8gV9aZDxPhnGvyhZEyvOo+KebnidSgbOcHEj0oukN3Dm3NzRXK0gBbNqTRQABTyKAj2f9HXg9qcsYXa0VpANrfqoiz+sLHARAh07F1+7hRNYhWkHavZarKJ+LLHcV0doyilaQtqzWpheqbQTQCtI2VakL0ggEtII0AtU2TjMVj2C7WQJYo6oyrSAqZDRdI8AIaAVhELTRCKgQ0AqiQkbTHYrA9IqlFWR68da5tRgCFSmIWHp39wWu4mX4F9iSzPICk/R7EQhwrox/umk8IDtSXkc0UEaWF0S5RfnlcTW1XRGoSEEM1+gGRDiHwVjItpPMQlFulzES6aRC67ICVKYgRP/Y4aB1evk7rvorUhDunszvOIQKC7x3oVf72goBSWEqUhCOXyk/R2kr0+nlb6vKtFMYXeF2UNI8HYtApQrCvaxSrJh4IRrGMe1iuTyqLxNxUGn5NaV9EahUQVAGBaLxp+Tg2vuSbWKB6ClZOZkmLT/TtWlTBCpVkDaFQRdLIyBHoF4KIk9dUzUCLY6AVpAWr0AtfmMR0ArSWHx16i2OgFaQFq9ALX5jEdAK0lh8deotjkALKEiLI6zFb2kEtIK0dPVp4RuNgFaQRiOs029pBLSCtHT1aeEbjUClCiLdi0RkHezpX7W0XSwgvkcBvLT8Ct62JHsUJ723Mr1cRVWqINK9SEz8N7Kse1vOKmTm8qg2K3JQOTjbP4zKnPTeqmFcqatVNVepgqjS0XSNQFsiUKmCWG2Jgv1CdXr57SPVJpwVKQgRvNYm5a62GK9UG7GV4iXfNfNBlncn2842CHdXpCBg4G0djlhnlP/p0AgQ3NLZdQ2ABv6qIgUZjoUvQsCLAeBFtp1kXiCg1al4eKXdQrc6XyoROZNn8y7gcmxh21EGiW7m+/zw5GDkj/8fAAD//47WLSsAAAAGSURBVAMAQUJZBmTOTrAAAAAASUVORK5CYII=;" parent="1" vertex="1">
          <mxGeometry x="849.66" y="1012.02" width="41.98" height="41.98" as="geometry" />
        </mxCell>
        <mxCell id="b2ScpHVBxIfjs2fCPtth-1" value="" style="endArrow=none;dashed=1;html=1;dashPattern=1 3;strokeWidth=2;rounded=0;entryX=1;entryY=0.5;entryDx=0;entryDy=0;fontSize=14;" edge="1" parent="1">
          <mxGeometry width="50" height="50" relative="1" as="geometry">
            <mxPoint x="959.12" y="1061" as="sourcePoint" />
            <mxPoint x="959.12" y="1021" as="targetPoint" />
          </mxGeometry>
        </mxCell>
        <mxCell id="b2ScpHVBxIfjs2fCPtth-2" value="" style="endArrow=none;dashed=1;html=1;dashPattern=1 3;strokeWidth=2;rounded=0;entryX=1;entryY=0.5;entryDx=0;entryDy=0;fontSize=14;" edge="1" parent="1">
          <mxGeometry width="50" height="50" relative="1" as="geometry">
            <mxPoint x="959.5" y="1152" as="sourcePoint" />
            <mxPoint x="959.5" y="1112" as="targetPoint" />
          </mxGeometry>
        </mxCell>
        <mxCell id="b2ScpHVBxIfjs2fCPtth-3" value="$$D_k$$" style="rounded=0;whiteSpace=wrap;html=1;fillColor=#FF8000;fontSize=14;" vertex="1" parent="1">
          <mxGeometry x="939.77" y="1093" width="39.7" height="20" as="geometry" />
        </mxCell>
      </root>
    </mxGraphModel>
  </diagram>
</mxfile>
